999
dxfrw 0.6.3
  0
SECTION
  2
HEADER
  9
$ACADVER
  1
AC1021
  9
$DWGCODEPAGE
  3
ANSI_1252
  9
$INSBASE
 10
0
 20
0
 30
0
  9
$EXTMIN
 10
-0.3779966080751347
 20
0
 30
0
  9
$EXTMAX
 10
308.8187683562012
 20
340.8218937689494
 30
0
  9
$LIMMIN
 10
0
 20
0
  9
$LIMMAX
 10
420
 20
297
  9
$ORTHOMODE
 70
    0
  9
$REGENMODE
 70
    1
  9
$FILLMODE
 70
    1
  9
$QTEXTMODE
 70
    0
  9
$MIRRTEXT
 70
    0
  9
$LTSCALE
 40
1
  9
$ATTMODE
 70
    0
  9
$TEXTSIZE
 40
2.5
  9
$TRACEWID
 40
15.68
  9
$TEXTSTYLE
  7
STANDARD
  9
$CLAYER
  8
0
  9
$CELTYPE
  6
BYLAYER
  9
$CECOLOR
 62
  256
  9
$CELTSCALE
 40
1
  9
$DISPSILH
 70
    0
  9
$DIMSCALE
 40
2.5
  9
$DIMASZ
 40
2.5
  9
$DIMEXO
 40
0.625
  9
$DIMDLI
 40
3.75
  9
$DIMRND
 40
0
  9
$DIMDLE
 40
0
  9
$DIMEXE
 40
1.25
  9
$DIMTP
 40
0
  9
$DIMTM
 40
0
  9
$DIMTXT
 40
2.5
  9
$DIMCEN
 40
2.5
  9
$DIMTSZ
 40
0
  9
$DIMTOL
 70
    0
  9
$DIMLIM
 70
    0
  9
$DIMTIH
 70
    0
  9
$DIMTOH
 70
    0
  9
$DIMSE1
 70
    0
  9
$DIMSE2
 70
    0
  9
$DIMTAD
 70
    1
  9
$DIMZIN
 70
    8
  9
$DIMBLK
  1

  9
$DIMASO
 70
    1
  9
$DIMSHO
 70
    1
  9
$DIMPOST
  1

  9
$DIMAPOST
  1

  9
$DIMALT
 70
    0
  9
$DIMALTD
 70
    3
  9
$DIMALTF
 40
0.03937
  9
$DIMLFAC
 40
1
  9
$DIMTOFL
 70
    1
  9
$DIMTVP
 40
0
  9
$DIMTIX
 70
    0
  9
$DIMSOXD
 70
    0
  9
$DIMSAH
 70
    0
  9
$DIMBLK1
  1

  9
$DIMBLK2
  1

  9
$DIMSTYLE
  2
STANDARD
  9
$DIMCLRD
 70
    0
  9
$DIMCLRE
 70
    0
  9
$DIMCLRT
 70
    0
  9
$DIMTFAC
 40
1
  9
$DIMGAP
 40
0.625
  9
$DIMJUST
 70
    0
  9
$DIMSD1
 70
    0
  9
$DIMSD2
 70
    0
  9
$DIMTOLJ
 70
    0
  9
$DIMTZIN
 70
    8
  9
$DIMALTZ
 70
    0
  9
$DIMALTTZ
 70
    0
  9
$DIMUPT
 70
    0
  9
$DIMDEC
 70
    2
  9
$DIMTDEC
 70
    2
  9
$DIMALTU
 70
    2
  9
$DIMALTTD
 70
    3
  9
$DIMTXSTY
  7
STANDARD
  9
$DIMAUNIT
 70
    0
  9
$DIMADEC
 70
    0
  9
$DIMALTRND
 40
0
  9
$DIMAZIN
 70
    0
  9
$DIMDSEP
 70
   44
  9
$DIMATFIT
 70
    3
  9
$DIMFRAC
 70
    0
  9
$DIMLDRBLK
  1
STANDARD
  9
$DIMLUNIT
 70
    2
  9
$DIMLWD
 70
   -2
  9
$DIMLWE
 70
   -2
  9
$DIMTMOVE
 70
    0
  9
$DIMFXL
 40
1
  9
$DIMFXLON
 70
    0
  9
$DIMJOGANG
 40
0.7854
  9
$DIMTFILL
 70
    0
  9
$DIMTFILLCLR
 70
    0
  9
$DIMARCSYM
 70
    0
  9
$DIMLTYPE
  6

  9
$DIMLTEX1
  6

  9
$DIMLTEX2
  6

  9
$LUNITS
 70
    2
  9
$LUPREC
 70
    4
  9
$SKETCHINC
 40
1
  9
$FILLETRAD
 40
0
  9
$AUNITS
 70
    0
  9
$AUPREC
 70
    2
  9
$MENU
  1
.
  9
$ELEVATION
 40
0
  9
$PELEVATION
 40
0
  9
$THICKNESS
 40
0
  9
$LIMCHECK
 70
    0
  9
$CHAMFERA
 40
0
  9
$CHAMFERB
 40
0
  9
$CHAMFERC
 40
0
  9
$CHAMFERD
 40
0
  9
$SKPOLY
 70
    0
  9
$USRTIMER
 70
    1
  9
$ANGBASE
 50
0
  9
$ANGDIR
 70
    0
  9
$PDMODE
 70
   34
  9
$PDSIZE
 40
0
  9
$PLINEWID
 40
0
  9
$SPLFRAME
 70
    0
  9
$SPLINETYPE
 70
    2
  9
$SPLINESEGS
 70
    8
  9
$HANDSEED
  5
20000
  9
$SURFTAB1
 70
    6
  9
$SURFTAB2
 70
    6
  9
$SURFTYPE
 70
    6
  9
$SURFU
 70
    6
  9
$SURFV
 70
    6
  9
$UCSBASE
  2

  9
$UCSNAME
  2

  9
$UCSORG
 10
0
 20
0
 30
0
  9
$UCSXDIR
 10
1
 20
0
 30
0
  9
$UCSYDIR
 10
0
 20
1
 30
0
  9
$UCSORTHOREF
  2

  9
$UCSORTHOVIEW
 70
    0
  9
$UCSORGTOP
 10
0
 20
0
 30
0
  9
$UCSORGBOTTOM
 10
0
 20
0
 30
0
  9
$UCSORGLEFT
 10
0
 20
0
 30
0
  9
$UCSORGRIGHT
 10
0
 20
0
 30
0
  9
$UCSORGFRONT
 10
0
 20
0
 30
0
  9
$UCSORGBACK
 10
0
 20
0
 30
0
  9
$PUCSBASE
  2

  9
$PUCSNAME
  2

  9
$PUCSORG
 10
0
 20
0
 30
0
  9
$PUCSXDIR
 10
1
 20
0
 30
0
  9
$PUCSYDIR
 10
0
 20
1
 30
0
  9
$PUCSORTHOREF
  2

  9
$PUCSORTHOVIEW
 70
    0
  9
$PUCSORGTOP
 10
0
 20
0
 30
0
  9
$PUCSORGBOTTOM
 10
0
 20
0
 30
0
  9
$PUCSORGLEFT
 10
0
 20
0
 30
0
  9
$PUCSORGRIGHT
 10
0
 20
0
 30
0
  9
$PUCSORGFRONT
 10
0
 20
0
 30
0
  9
$PUCSORGBACK
 10
0
 20
0
 30
0
  9
$USERI1
 70
    0
  9
$USERI2
 70
    0
  9
$USERI3
 70
    0
  9
$USERI4
 70
    0
  9
$USERI5
 70
    0
  9
$USERR1
 40
0
  9
$USERR2
 40
0
  9
$USERR3
 40
0
  9
$USERR4
 40
0
  9
$USERR5
 40
0
  9
$WORLDVIEW
 70
    1
  9
$SHADEDGE
 70
    3
  9
$SHADEDIF
 70
   70
  9
$TILEMODE
 70
    1
  9
$MAXACTVP
 70
   64
  9
$PINSBASE
 10
0
 20
0
 30
0
  9
$PLIMCHECK
 70
    0
  9
$PEXTMIN
 10
0
 20
0
 30
0
  9
$PEXTMAX
 10
0
 20
0
 30
0
  9
$SNAPSTYLE
 70
    0
  9
$PLIMMIN
 10
0
 20
0
  9
$PLIMMAX
 10
210
 20
297
  9
$UNITMODE
 70
    0
  9
$VISRETAIN
 70
    1
  9
$PLINEGEN
 70
    0
  9
$PSLTSCALE
 70
    1
  9
$TREEDEPTH
 70
 3020
  9
$CMLSTYLE
  2
Standard
  9
$CMLJUST
 70
    0
  9
$CMLSCALE
 40
20
  9
$PROXYGRAPHICS
 70
    1
  9
$MEASUREMENT
 70
    1
  9
$CELWEIGHT
370
   -1
  9
$ENDCAPS
280
    0
  9
$JOINSTYLE
280
    0
  9
$LWDISPLAY
290
    0
  9
$INSUNITS
 70
    4
  9
$HYPERLINKBASE
  1

  9
$STYLESHEET
  1

  9
$XEDIT
290
    1
  9
$CEPSNTYPE
380
    0
  9
$PSTYLEMODE
290
    1
  9
$EXTNAMES
290
    1
  9
$PSVPSCALE
 40
1
  9
$OLESTARTUP
290
    0
  9
$SORTENTS
280
  127
  9
$INDEXCTL
280
    0
  9
$HIDETEXT
280
    1
  9
$XCLIPFRAME
290
    0
  9
$HALOGAP
280
    0
  9
$OBSCOLOR
 70
  257
  9
$OBSLTYPE
280
    0
  9
$INTERSECTIONDISPLAY
280
    0
  9
$INTERSECTIONCOLOR
 70
  257
  9
$DIMASSOC
280
    1
  9
$PROJECTNAME
  1

  9
$CAMERADISPLAY
290
    0
  9
$LENSLENGTH
 40
50
  9
$CAMERAHEIGHT
 40
0
  9
$STEPSPERSEC
 40
2
  9
$STEPSIZE
 40
50
  9
$3DDWFPREC
 40
2
  9
$PSOLWIDTH
 40
5
  9
$PSOLHEIGHT
 40
80
  9
$LOFTANG1
 40
1.570796326794897
  9
$LOFTANG2
 40
1.570796326794897
  9
$LOFTMAG1
 40
0
  9
$LOFTMAG2
 40
0
  9
$LOFTPARAM
 70
    7
  9
$LOFTNORMALS
280
    1
  9
$LATITUDE
 40
1
  9
$LONGITUDE
 40
1
  9
$NORTHDIRECTION
 40
0
  9
$TIMEZONE
 70
-8000
  9
$LIGHTGLYPHDISPLAY
280
    1
  9
$TILEMODELIGHTSYNCH
280
    1
  9
$SOLIDHIST
280
    1
  9
$SHOWHIST
280
    1
  9
$DWFFRAME
280
    2
  9
$DGNFRAME
280
    0
  9
$REALWORLDSCALE
290
    1
  9
$INTERFERECOLOR
 62
    1
  9
$CSHADOW
280
    0
  9
$SHADOWPLANELOCATION
 40
0
  0
ENDSEC
  0
SECTION
  2
CLASSES
  0
ENDSEC
  0
SECTION
  2
TABLES
  0
TABLE
  2
VPORT
  5
8
330
0
100
AcDbSymbolTable
 70
    1
  0
VPORT
  5
31
330
2
100
AcDbSymbolTableRecord
100
AcDbViewportTableRecord
  2
*ACTIVE
 70
    0
 10
0
 20
0
 11
1
 21
1
 12
195.985168273942
 22
118.3476613565992
 13
0
 23
0
 14
10
 24
10
 15
10
 25
10
 16
0
 26
0
 36
1
 17
0
 27
0
 37
0
 40
300.4625557729185
 41
1.755395683453237
 42
50
 43
0
 44
0
 50
0
 51
0
 71
    0
 72
  100
 73
    1
 74
    3
 75
    0
 76
    1
 77
    0
 78
    0
281
    0
 65
    1
110
0
120
0
130
0
111
1
121
0
131
0
112
0
122
1
132
0
 79
    0
146
0
348
10020
 60
    7
 61
    5
292
1
282
    1
141
0
142
0
 63
  250
421
3358443
  0
ENDTAB
  0
TABLE
  2
LTYPE
  5
5
330
0
100
AcDbSymbolTable
 70
    4
  0
LTYPE
  5
14
330
5
100
AcDbSymbolTableRecord
100
AcDbLinetypeTableRecord
  2
ByBlock
 70
    0
  3

 72
   65
 73
    0
 40
0
  0
LTYPE
  5
15
330
5
100
AcDbSymbolTableRecord
100
AcDbLinetypeTableRecord
  2
ByLayer
 70
    0
  3

 72
   65
 73
    0
 40
0
  0
LTYPE
  5
16
330
5
100
AcDbSymbolTableRecord
100
AcDbLinetypeTableRecord
  2
Continuous
 70
    0
  3
Solid line
 72
   65
 73
    0
 40
0
  0
LTYPE
  5
32
330
5
100
AcDbSymbolTableRecord
100
AcDbLinetypeTableRecord
  2
DOT
 70
    0
  3
Dot . . . . . . . . . . . . . . . . . . . . . .
 72
   65
 73
    2
 40
6.35
 49
0
 74
    0
 49
-6.35
 74
    0
  0
LTYPE
  5
33
330
5
100
AcDbSymbolTableRecord
100
AcDbLinetypeTableRecord
  2
DOTTINY
 70
    0
  3
Dot (.15x) .....................................
 72
   65
 73
    2
 40
0.9525
 49
0
 74
    0
 49
-0.9525
 74
    0
  0
LTYPE
  5
34
330
5
100
AcDbSymbolTableRecord
100
AcDbLinetypeTableRecord
  2
DOT2
 70
    0
  3
Dot (.5x) .....................................
 72
   65
 73
    2
 40
3.175
 49
0
 74
    0
 49
-3.175
 74
    0
  0
LTYPE
  5
35
330
5
100
AcDbSymbolTableRecord
100
AcDbLinetypeTableRecord
  2
DOTX2
 70
    0
  3
Dot (2x) .  .  .  .  .  .  .  .  .  .  .  .  .
 72
   65
 73
    2
 40
12.7
 49
0
 74
    0
 49
-12.7
 74
    0
  0
LTYPE
  5
36
330
5
100
AcDbSymbolTableRecord
100
AcDbLinetypeTableRecord
  2
DASHED
 70
    0
  3
Dashed _ _ _ _ _ _ _ _ _ _ _ _ _ _ _ _ _
 72
   65
 73
    2
 40
19.05
 49
12.7
 74
    0
 49
-6.35
 74
    0
  0
LTYPE
  5
37
330
5
100
AcDbSymbolTableRecord
100
AcDbLinetypeTableRecord
  2
DASHEDTINY
 70
    0
  3
Dashed (.15x) _ _ _ _ _ _ _ _ _ _ _ _ _ _ _ _ _
 72
   65
 73
    2
 40
2.8575
 49
1.905
 74
    0
 49
-0.9525
 74
    0
  0
LTYPE
  5
38
330
5
100
AcDbSymbolTableRecord
100
AcDbLinetypeTableRecord
  2
DASHED2
 70
    0
  3
Dashed (.5x) _ _ _ _ _ _ _ _ _ _ _ _ _ _ _ _ _
 72
   65
 73
    2
 40
9.524999999999999
 49
6.35
 74
    0
 49
-3.175
 74
    0
  0
LTYPE
  5
39
330
5
100
AcDbSymbolTableRecord
100
AcDbLinetypeTableRecord
  2
DASHEDX2
 70
    0
  3
Dashed (2x) ____  ____  ____  ____  ____  ___
 72
   65
 73
    2
 40
38.09999999999999
 49
25.4
 74
    0
 49
-12.7
 74
    0
  0
LTYPE
  5
3A
330
5
100
AcDbSymbolTableRecord
100
AcDbLinetypeTableRecord
  2
DASHDOT
 70
    0
  3
Dash dot __ . __ . __ . __ . __ . __ . __ . __
 72
   65
 73
    4
 40
25.4
 49
12.7
 74
    0
 49
-6.35
 74
    0
 49
0
 74
    0
 49
-6.35
 74
    0
  0
LTYPE
  5
3B
330
5
100
AcDbSymbolTableRecord
100
AcDbLinetypeTableRecord
  2
DASHDOTTINY
 70
    0
  3
Dash dot (.15x) _._._._._._._._._._._._._._._.
 72
   65
 73
    4
 40
3.81
 49
1.905
 74
    0
 49
-0.9525
 74
    0
 49
0
 74
    0
 49
-0.9525
 74
    0
  0
LTYPE
  5
3C
330
5
100
AcDbSymbolTableRecord
100
AcDbLinetypeTableRecord
  2
DASHDOT2
 70
    0
  3
Dash dot (.5x) _._._._._._._._._._._._._._._.
 72
   65
 73
    4
 40
12.7
 49
6.35
 74
    0
 49
-3.175
 74
    0
 49
0
 74
    0
 49
-3.175
 74
    0
  0
LTYPE
  5
3D
330
5
100
AcDbSymbolTableRecord
100
AcDbLinetypeTableRecord
  2
DASHDOTX2
 70
    0
  3
Dash dot (2x) ____  .  ____  .  ____  .  ___
 72
   65
 73
    4
 40
50.8
 49
25.4
 74
    0
 49
-12.7
 74
    0
 49
0
 74
    0
 49
-12.7
 74
    0
  0
LTYPE
  5
3E
330
5
100
AcDbSymbolTableRecord
100
AcDbLinetypeTableRecord
  2
DIVIDE
 70
    0
  3
Divide ____ . . ____ . . ____ . . ____ . . ____
 72
   65
 73
    6
 40
31.75
 49
12.7
 74
    0
 49
-6.35
 74
    0
 49
0
 74
    0
 49
-6.35
 74
    0
 49
0
 74
    0
 49
-6.35
 74
    0
  0
LTYPE
  5
3F
330
5
100
AcDbSymbolTableRecord
100
AcDbLinetypeTableRecord
  2
DIVIDETINY
 70
    0
  3
Divide (.15x) __..__..__..__..__..__..__..__.._
 72
   65
 73
    6
 40
4.7625
 49
1.905
 74
    0
 49
-0.9525
 74
    0
 49
0
 74
    0
 49
-0.9525
 74
    0
 49
0
 74
    0
 49
-0.9525
 74
    0
  0
LTYPE
  5
40
330
5
100
AcDbSymbolTableRecord
100
AcDbLinetypeTableRecord
  2
DIVIDE2
 70
    0
  3
Divide (.5x) __..__..__..__..__..__..__..__.._
 72
   65
 73
    6
 40
15.875
 49
6.35
 74
    0
 49
-3.175
 74
    0
 49
0
 74
    0
 49
-3.175
 74
    0
 49
0
 74
    0
 49
-3.175
 74
    0
  0
LTYPE
  5
41
330
5
100
AcDbSymbolTableRecord
100
AcDbLinetypeTableRecord
  2
DIVIDEX2
 70
    0
  3
Divide (2x) ________  .  .  ________  .  .  _
 72
   65
 73
    6
 40
63.5
 49
25.4
 74
    0
 49
-12.7
 74
    0
 49
0
 74
    0
 49
-12.7
 74
    0
 49
0
 74
    0
 49
-12.7
 74
    0
  0
LTYPE
  5
42
330
5
100
AcDbSymbolTableRecord
100
AcDbLinetypeTableRecord
  2
BORDER
 70
    0
  3
Border __ __ . __ __ . __ __ . __ __ . __ __ .
 72
   65
 73
    6
 40
44.45
 49
12.7
 74
    0
 49
-6.35
 74
    0
 49
12.7
 74
    0
 49
-6.35
 74
    0
 49
0
 74
    0
 49
-6.35
 74
    0
  0
LTYPE
  5
43
330
5
100
AcDbSymbolTableRecord
100
AcDbLinetypeTableRecord
  2
BORDERTINY
 70
    0
  3
Border (.15x) __.__.__.__.__.__.__.__.__.__.__.
 72
   65
 73
    6
 40
6.6675
 49
1.905
 74
    0
 49
-0.9525
 74
    0
 49
1.905
 74
    0
 49
-0.9525
 74
    0
 49
0
 74
    0
 49
-0.9525
 74
    0
  0
LTYPE
  5
44
330
5
100
AcDbSymbolTableRecord
100
AcDbLinetypeTableRecord
  2
BORDER2
 70
    0
  3
Border (.5x) __.__.__.__.__.__.__.__.__.__.__.
 72
   65
 73
    6
 40
22.225
 49
6.35
 74
    0
 49
-3.175
 74
    0
 49
6.35
 74
    0
 49
-3.175
 74
    0
 49
0
 74
    0
 49
-3.175
 74
    0
  0
LTYPE
  5
45
330
5
100
AcDbSymbolTableRecord
100
AcDbLinetypeTableRecord
  2
BORDERX2
 70
    0
  3
Border (2x) ____  ____  .  ____  ____  .  ___
 72
   65
 73
    6
 40
88.89999999999999
 49
25.4
 74
    0
 49
-12.7
 74
    0
 49
25.4
 74
    0
 49
-12.7
 74
    0
 49
0
 74
    0
 49
-12.7
 74
    0
  0
LTYPE
  5
46
330
5
100
AcDbSymbolTableRecord
100
AcDbLinetypeTableRecord
  2
CENTER
 70
    0
  3
Center ____ _ ____ _ ____ _ ____ _ ____ _ ____
 72
   65
 73
    4
 40
50.8
 49
31.75
 74
    0
 49
-6.35
 74
    0
 49
6.35
 74
    0
 49
-6.35
 74
    0
  0
LTYPE
  5
47
330
5
100
AcDbSymbolTableRecord
100
AcDbLinetypeTableRecord
  2
CENTERTINY
 70
    0
  3
Center (.15x) ___ _ ___ _ ___ _ ___ _ ___ _ ___
 72
   65
 73
    4
 40
7.62
 49
4.7625
 74
    0
 49
-0.9525
 74
    0
 49
0.9525
 74
    0
 49
-0.9525
 74
    0
  0
LTYPE
  5
48
330
5
100
AcDbSymbolTableRecord
100
AcDbLinetypeTableRecord
  2
CENTER2
 70
    0
  3
Center (.5x) ___ _ ___ _ ___ _ ___ _ ___ _ ___
 72
   65
 73
    4
 40
28.575
 49
19.05
 74
    0
 49
-3.175
 74
    0
 49
3.175
 74
    0
 49
-3.175
 74
    0
  0
LTYPE
  5
49
330
5
100
AcDbSymbolTableRecord
100
AcDbLinetypeTableRecord
  2
CENTERX2
 70
    0
  3
Center (2x) ________  __  ________  __  _____
 72
   65
 73
    4
 40
101.6
 49
63.5
 74
    0
 49
-12.7
 74
    0
 49
12.7
 74
    0
 49
-12.7
 74
    0
  0
ENDTAB
  0
TABLE
  2
LAYER
  5
2
330
0
100
AcDbSymbolTable
 70
    1
  0
LAYER
  5
10
330
2
100
AcDbSymbolTableRecord
100
AcDbLayerTableRecord
  2
0
 70
    0
 62
    7
  6
CONTINUOUS
370
    0
390
F
  0
LAYER
  5
4A
330
2
100
AcDbSymbolTableRecord
100
AcDbLayerTableRecord
  2
12mm from switch
 70
    0
 62
    7
  6
CONTINUOUS
370
    0
390
F
  0
LAYER
  5
4B
330
2
100
AcDbSymbolTableRecord
100
AcDbLayerTableRecord
  2
holes
 70
    0
 62
   96
420
32768
  6
CONTINUOUS
370
    0
390
F
  0
LAYER
  5
4C
330
2
100
AcDbSymbolTableRecord
100
AcDbLayerTableRecord
  2
square holes
 70
    0
 62
    6
  6
CONTINUOUS
370
    0
390
F
  0
ENDTAB
  0
TABLE
  2
STYLE
  5
3
330
0
100
AcDbSymbolTable
 70
    3
  0
STYLE
  5
4D
330
2
100
AcDbSymbolTableRecord
100
AcDbTextStyleTableRecord
  2
Standard
 70
    0
 40
0
 41
1
 50
0
 71
    0
 42
1
  3
txt
  4

  0
ENDTAB
  0
TABLE
  2
VIEW
  5
6
330
0
100
AcDbSymbolTable
 70
    0
  0
ENDTAB
  0
TABLE
  2
UCS
  5
7
330
0
100
AcDbSymbolTable
 70
    0
  0
ENDTAB
  0
TABLE
  2
APPID
  5
9
330
0
100
AcDbSymbolTable
 70
    1
  0
APPID
  5
12
330
9
100
AcDbSymbolTableRecord
100
AcDbRegAppTableRecord
  2
ACAD
 70
    0
  0
APPID
  5
4E
330
9
100
AcDbSymbolTableRecord
100
AcDbRegAppTableRecord
  2
LibreCad
 70
    0
  0
ENDTAB
  0
TABLE
  2
DIMSTYLE
  5
A
330
0
100
AcDbSymbolTable
 70
    1
100
AcDbDimStyleTable
 71
    1
  0
DIMSTYLE
105
4F
330
A
100
AcDbSymbolTableRecord
100
AcDbDimStyleTableRecord
  2
Standard
 70
    0
 40
1
 41
2.5
 42
0.625
 43
0.38
 44
1.25
 45
0
 46
0
 47
0
 48
0
 49
1
140
2.5
141
0.09
142
2.5
143
25.4
144
1
145
0
146
1
147
0.625
148
0
 71
    0
 72
    0
 73
    0
 74
    1
 75
    0
 76
    0
 77
    0
 78
    1
 79
    0
170
    0
171
    2
172
    0
173
    0
174
    0
175
    0
176
    0
177
    0
178
    0
179
    0
271
    2
272
    4
273
    2
274
    2
275
    0
276
    0
277
    2
278
    0
279
    0
280
    0
281
    0
282
    0
283
    1
284
    0
285
    0
286
    0
288
    0
289
    3
340
standard
341

371
   -2
372
   -2
  0
ENDTAB
  0
TABLE
  2
BLOCK_RECORD
  5
1
330
0
100
AcDbSymbolTable
 70
    2
  0
BLOCK_RECORD
  5
1F
330
1
100
AcDbSymbolTableRecord
100
AcDbBlockTableRecord
  2
*Model_Space
 70
    0
280
    1
281
    0
  0
BLOCK_RECORD
  5
1E
330
1
100
AcDbSymbolTableRecord
100
AcDbBlockTableRecord
  2
*Paper_Space
 70
    0
280
    1
281
    0
  0
ENDTAB
  0
ENDSEC
  0
SECTION
  2
BLOCKS
  0
BLOCK
  5
20
330
1F
100
AcDbEntity
  8
0
100
AcDbBlockBegin
  2
*Model_Space
 70
    0
 10
0
 20
0
 30
0
  3
*Model_Space
  1

  0
ENDBLK
  5
21
330
1F
100
AcDbEntity
  8
0
100
AcDbBlockEnd
  0
BLOCK
  5
1C
330
1B
100
AcDbEntity
  8
0
100
AcDbBlockBegin
  2
*Paper_Space
 70
    0
 10
0
 20
0
 30
0
  3
*Paper_Space
  1

  0
ENDBLK
  5
1D
330
1F
100
AcDbEntity
  8
0
100
AcDbBlockEnd
  0
ENDSEC
  0
SECTION
  2
ENTITIES
  0
LWPOLYLINE
  5
50
100
AcDbEntity
  8
square holes
  6
ByLayer
 62
    6
370
   -1
100
AcDbPolyline
 90
    4
 70
    1
 43
0
 10
14.7983336175224
 20
91.13848209254559
 10
18.42179553694329
 20
104.6614449231723
 10
31.94475836756865
 20
101.0379830037505
 10
28.32129644814783
 20
87.51502017312578
  0
LWPOLYLINE
  5
51
100
AcDbEntity
  8
square holes
  6
ByLayer
 62
    6
370
   -1
100
AcDbPolyline
 90
    4
 70
    1
 43
0
 10
33.25181592862172
 20
105.9158437599309
 10
36.87527784804253
 20
119.4388065905556
 10
23.35231501741718
 20
123.0622685099775
 10
19.72885309799628
 20
109.5393056793507
  0
LWPOLYLINE
  5
52
100
AcDbEntity
  8
square holes
  6
ByLayer
 62
    6
370
   -1
100
AcDbPolyline
 90
    4
 70
    1
 43
0
 10
38.18267021235542
 20
124.3164166199726
 10
41.80613213177624
 20
137.8393794505973
 10
28.2831693011509
 20
141.4628413700191
 10
24.65970738172999
 20
127.9398785393924
  0
LWPOLYLINE
  5
53
100
AcDbEntity
  8
square holes
  6
ByLayer
 62
    6
370
   -1
100
AcDbPolyline
 90
    4
 70
    1
 43
0
 10
43.11202977394702
 20
142.7182606872134
 10
46.73549169336785
 20
156.2412235178381
 10
33.21252886274251
 20
159.8646854372599
 10
29.5890669433216
 20
146.3417226066332
  0
LWPOLYLINE
  5
54
100
AcDbEntity
  8
square holes
  6
ByLayer
 62
    6
370
   -1
100
AcDbPolyline
 90
    4
 70
    1
 43
0
 10
33.19980057783156
 20
86.2079982756494
 10
36.82326249725246
 20
99.7309611062762
 10
50.3462253278778
 20
96.10749918685428
 10
46.72276340845696
 20
82.58453635622959
  0
LWPOLYLINE
  5
55
100
AcDbEntity
  8
square holes
  6
ByLayer
 62
    6
370
   -1
100
AcDbPolyline
 90
    4
 70
    1
 43
0
 10
51.65328288893087
 20
100.9853599430347
 10
55.27674480835169
 20
114.5083227736594
 10
41.75378197772635
 20
118.1317846930813
 10
38.13032005830544
 20
104.6088218624546
  0
LWPOLYLINE
  5
56
100
AcDbEntity
  8
square holes
  6
ByLayer
 62
    6
370
   -1
100
AcDbPolyline
 90
    4
 70
    1
 43
0
 10
56.58413717266458
 20
119.3859328030764
 10
60.2075990920854
 20
132.9088956337011
 10
46.68463626146006
 20
136.5323575531229
 10
43.06117434203915
 20
123.0093947224962
  0
LWPOLYLINE
  5
57
100
AcDbEntity
  8
square holes
  6
ByLayer
 62
    6
370
   -1
100
AcDbPolyline
 90
    4
 70
    1
 43
0
 10
61.51349673425619
 20
137.7877768703172
 10
65.13695865367701
 20
151.3107397009419
 10
51.61399582305167
 20
154.9342016203637
 10
47.99053390363076
 20
141.411238789737
  0
LWPOLYLINE
  5
58
100
AcDbEntity
  8
square holes
  6
ByLayer
 62
    6
370
   -1
100
AcDbPolyline
 90
    4
 70
    1
 43
0
 10
54.06527352779815
 20
90.47603001397965
 10
57.68873544721905
 20
103.9989928446064
 10
71.21169827784442
 20
100.3755309251846
 10
67.58823635842357
 20
86.8525680945599
  0
LWPOLYLINE
  5
59
100
AcDbEntity
  8
square holes
  6
ByLayer
 62
    6
370
   -1
100
AcDbPolyline
 90
    4
 70
    1
 43
0
 10
72.51875583889748
 20
105.2533916813651
 10
76.14221775831828
 20
118.7763545119897
 10
62.61925492769294
 20
122.3998164314116
 10
58.99579300827204
 20
108.8768536007849
  0
LWPOLYLINE
  5
5A
100
AcDbEntity
  8
square holes
  6
ByLayer
 62
    6
370
   -1
100
AcDbPolyline
 90
    4
 70
    1
 43
0
 10
77.44961012263119
 20
123.6539645414067
 10
81.07307204205199
 20
137.1769273720314
 10
67.55010921142664
 20
140.8003892914533
 10
63.92664729200573
 20
127.2774264608265
  0
LWPOLYLINE
  5
5B
100
AcDbEntity
  8
square holes
  6
ByLayer
 62
    6
370
   -1
100
AcDbPolyline
 90
    4
 70
    1
 43
0
 10
82.3789696842228
 20
142.0558086086475
 10
86.0024316036436
 20
155.5787714392722
 10
72.47946877301825
 20
159.202233358694
 10
68.85600685359736
 20
145.6792705280673
  0
LWPOLYLINE
  5
5C
100
AcDbEntity
  8
square holes
  6
ByLayer
 62
    6
370
   -1
100
AcDbPolyline
 90
    4
 70
    1
 43
0
 10
73.45295243780836
 20
89.2258413479139
 10
77.07641435722925
 20
102.7488041785406
 10
90.5993771878546
 20
99.12534225911867
 10
86.97591526843377
 20
85.60237942849409
  0
LWPOLYLINE
  5
5D
100
AcDbEntity
  8
square holes
  6
ByLayer
 62
    6
370
   -1
100
AcDbPolyline
 90
    4
 70
    1
 43
0
 10
91.90643474890769
 20
104.0032030152992
 10
95.52989666832849
 20
117.5261658459239
 10
82.00693383770314
 20
121.1496277653458
 10
78.38347191828223
 20
107.6266649347191
  0
LWPOLYLINE
  5
5E
100
AcDbEntity
  8
square holes
  6
ByLayer
 62
    6
370
   -1
100
AcDbPolyline
 90
    4
 70
    1
 43
0
 10
96.83728903264139
 20
122.4037758753409
 10
100.4607509520622
 20
135.9267387059656
 10
86.93778812143685
 20
139.5502006253874
 10
83.31432620201596
 20
126.0272377947607
  0
LWPOLYLINE
  5
5F
100
AcDbEntity
  8
square holes
  6
ByLayer
 62
    6
370
   -1
100
AcDbPolyline
 90
    4
 70
    1
 43
0
 10
101.766648594233
 20
140.8056199425817
 10
105.3901105136538
 20
154.3285827732064
 10
91.86714768302846
 20
157.9520446926282
 10
88.24368576360757
 20
144.4290818620015
  0
LWPOLYLINE
  5
60
100
AcDbEntity
  8
square holes
  6
ByLayer
 62
    6
370
   -1
100
AcDbPolyline
 90
    4
 70
    1
 43
0
 10
90.3748474942245
 20
78.77523228030179
 10
93.99830941364539
 20
92.29819511092859
 10
107.5212722442707
 20
88.67473319150668
 10
103.8978103248499
 20
75.15177036088198
  0
LWPOLYLINE
  5
61
100
AcDbEntity
  8
square holes
  6
ByLayer
 62
    6
370
   -1
100
AcDbPolyline
 90
    4
 70
    1
 43
0
 10
108.8283298053238
 20
93.55259394768706
 10
112.4517917247446
 20
107.0755567783117
 10
98.92882889411928
 20
110.6990186977337
 10
95.30536697469836
 20
97.17605586710687
  0
LWPOLYLINE
  5
62
100
AcDbEntity
  8
square holes
  6
ByLayer
 62
    6
370
   -1
100
AcDbPolyline
 90
    4
 70
    1
 43
0
 10
113.7591840890575
 20
111.9531668077288
 10
117.3826460084783
 20
125.4761296383535
 10
103.859683177853
 20
129.0995915577753
 10
100.2362212584321
 20
115.5766287271486
  0
LWPOLYLINE
  5
63
100
AcDbEntity
  8
square holes
  6
ByLayer
 62
    6
370
   -1
100
AcDbPolyline
 90
    4
 70
    1
 43
0
 10
118.6885436506491
 20
130.3550108749696
 10
122.31200557007
 20
143.8779737055943
 10
108.7890427394446
 20
147.5014356250161
 10
105.1655808200237
 20
133.9784727943894
  0
LWPOLYLINE
  5
64
100
AcDbEntity
  8
square holes
  6
ByLayer
 62
    6
370
   -1
100
AcDbPolyline
 90
    4
 70
    1
 43
0
 10
108.2828275106013
 20
72.00504535377479
 10
111.9062894300222
 20
85.52800818440159
 10
125.4292522606475
 20
81.90454626497967
 10
121.8057903412267
 20
68.38158343435498
  0
LWPOLYLINE
  5
65
100
AcDbEntity
  8
square holes
  6
ByLayer
 62
    6
370
   -1
100
AcDbPolyline
 90
    4
 70
    1
 43
0
 10
126.7363098217006
 20
86.78240702116005
 10
130.3597717411214
 20
100.3053698517848
 10
116.8368089104961
 20
103.9288317712067
 10
113.2133469910751
 20
90.40586894057986
  0
LWPOLYLINE
  5
66
100
AcDbEntity
  8
square holes
  6
ByLayer
 62
    6
370
   -1
100
AcDbPolyline
 90
    4
 70
    1
 43
0
 10
131.6671641054343
 20
105.1829798812018
 10
135.2906260248551
 20
118.7059427118265
 10
121.7676631942298
 20
122.3294046312483
 10
118.1442012748089
 20
108.8064418006216
  0
LWPOLYLINE
  5
67
100
AcDbEntity
  8
square holes
  6
ByLayer
 62
    6
370
   -1
100
AcDbPolyline
 90
    4
 70
    1
 43
0
 10
136.5965236670259
 20
123.5848239484426
 10
140.2199855864467
 20
137.1077867790673
 10
126.6970227558214
 20
140.7312486984891
 10
123.0735608364005
 20
127.2082858678624
  0
LWPOLYLINE
  5
68
100
AcDbEntity
  8
square holes
  6
ByLayer
 62
    6
370
   -1
100
AcDbPolyline
 90
    4
 70
    1
 43
0
 10
293.641640720111
 20
91.13848209254496
 10
290.0181788006901
 20
104.6614449231717
 10
276.4952159700647
 20
101.0379830037499
 10
280.1186778894857
 20
87.51502017312515
  0
LWPOLYLINE
  5
69
100
AcDbEntity
  8
square holes
  6
ByLayer
 62
    6
370
   -1
100
AcDbPolyline
 90
    4
 70
    1
 43
0
 10
275.1881584090117
 20
105.9158437599303
 10
271.5646964895908
 20
119.438806590555
 10
285.0876593202163
 20
123.0622685099768
 10
288.7111212396371
 20
109.5393056793501
  0
LWPOLYLINE
  5
6A
100
AcDbEntity
  8
square holes
  6
ByLayer
 62
    6
370
   -1
100
AcDbPolyline
 90
    4
 70
    1
 43
0
 10
270.2573041252781
 20
124.316416619972
 10
266.6338422058572
 20
137.8393794505967
 10
280.1568050364825
 20
141.4628413700185
 10
283.7802669559034
 20
127.9398785393918
  0
LWPOLYLINE
  5
6B
100
AcDbEntity
  8
square holes
  6
ByLayer
 62
    6
370
   -1
100
AcDbPolyline
 90
    4
 70
    1
 43
0
 10
265.3279445636863
 20
142.7182606872127
 10
261.7044826442656
 20
156.2412235178374
 10
275.227445474891
 20
159.8646854372592
 10
278.8509073943119
 20
146.3417226066326
  0
LWPOLYLINE
  5
6C
100
AcDbEntity
  8
square holes
  6
ByLayer
 62
    6
370
   -1
100
AcDbPolyline
 90
    4
 70
    1
 43
0
 10
275.2401737598018
 20
86.20799827564878
 10
271.6167118403809
 20
99.73096110627546
 10
258.0937490097556
 20
96.10749918685366
 10
261.7172109291764
 20
82.58453635622897
  0
LWPOLYLINE
  5
6D
100
AcDbEntity
  8
square holes
  6
ByLayer
 62
    6
370
   -1
100
AcDbPolyline
 90
    4
 70
    1
 43
0
 10
256.7866914487025
 20
100.9853599430341
 10
253.1632295292817
 20
114.5083227736588
 10
266.6861923599071
 20
118.1317846930807
 10
270.3096542793279
 20
104.6088218624539
  0
LWPOLYLINE
  5
6E
100
AcDbEntity
  8
square holes
  6
ByLayer
 62
    6
370
   -1
100
AcDbPolyline
 90
    4
 70
    1
 43
0
 10
251.8558371649688
 20
119.3859328030758
 10
248.232375245548
 20
132.9088956337005
 10
261.7553380761733
 20
136.5323575531223
 10
265.3787999955942
 20
123.0093947224956
  0
LWPOLYLINE
  5
6F
100
AcDbEntity
  8
square holes
  6
ByLayer
 62
    6
370
   -1
100
AcDbPolyline
 90
    4
 70
    1
 43
0
 10
246.9264776033772
 20
137.7877768703165
 10
243.3030156839564
 20
151.3107397009413
 10
256.8259785145817
 20
154.9342016203631
 10
260.4494404340026
 20
141.4112387897364
  0
LWPOLYLINE
  5
70
100
AcDbEntity
  8
square holes
  6
ByLayer
 62
    6
370
   -1
100
AcDbPolyline
 90
    4
 70
    1
 43
0
 10
254.3747008098352
 20
90.47603001397908
 10
250.7512388904143
 20
103.9989928446058
 10
237.228276059789
 20
100.375530925184
 10
240.8517379792098
 20
86.85256809455927
  0
LWPOLYLINE
  5
71
100
AcDbEntity
  8
square holes
  6
ByLayer
 62
    6
370
   -1
100
AcDbPolyline
 90
    4
 70
    1
 43
0
 10
235.9212184987359
 20
105.2533916813644
 10
232.2977565793151
 20
118.7763545119891
 10
245.8207194099405
 20
122.399816431411
 10
249.4441813293613
 20
108.8768536007842
  0
LWPOLYLINE
  5
72
100
AcDbEntity
  8
square holes
  6
ByLayer
 62
    6
370
   -1
100
AcDbPolyline
 90
    4
 70
    1
 43
0
 10
230.9903642150022
 20
123.6539645414061
 10
227.3669022955814
 20
137.1769273720308
 10
240.8898651262067
 20
140.8003892914526
 10
244.5133270456276
 20
127.2774264608259
  0
LWPOLYLINE
  5
73
100
AcDbEntity
  8
square holes
  6
ByLayer
 62
    6
370
   -1
100
AcDbPolyline
 90
    4
 70
    1
 43
0
 10
226.0610046534106
 20
142.0558086086468
 10
222.4375427339898
 20
155.5787714392716
 10
235.9605055646151
 20
159.2022333586934
 10
239.583967484036
 20
145.6792705280667
  0
LWPOLYLINE
  5
74
100
AcDbEntity
  8
square holes
  6
ByLayer
 62
    6
370
   -1
100
AcDbPolyline
 90
    4
 70
    1
 43
0
 10
216.5335395887257
 20
104.0032030152986
 10
212.9100776693049
 20
117.5261658459233
 10
226.4330404999302
 20
121.1496277653452
 10
230.0565024193511
 20
107.6266649347184
  0
LWPOLYLINE
  5
75
100
AcDbEntity
  8
square holes
  6
ByLayer
 62
    6
370
   -1
100
AcDbPolyline
 90
    4
 70
    1
 43
0
 10
211.602685304992
 20
122.4037758753403
 10
207.9792233855712
 20
135.926738705965
 10
221.5021862161965
 20
139.5502006253868
 10
225.1256481356174
 20
126.0272377947601
  0
LWPOLYLINE
  5
76
100
AcDbEntity
  8
square holes
  6
ByLayer
 62
    6
370
   -1
100
AcDbPolyline
 90
    4
 70
    1
 43
0
 10
206.6733257434004
 20
140.805619942581
 10
203.0498638239796
 20
154.3285827732058
 10
216.5728266546049
 20
157.9520446926276
 10
220.1962885740258
 20
144.4290818620009
  0
LWPOLYLINE
  5
77
100
AcDbEntity
  8
square holes
  6
ByLayer
 62
    6
370
   -1
100
AcDbPolyline
 90
    4
 70
    1
 43
0
 10
218.0651268434089
 20
78.77523228030117
 10
214.4416649239881
 20
92.29819511092785
 10
200.9187020933627
 20
88.67473319150599
 10
204.5421640127835
 20
75.1517703608813
  0
LWPOLYLINE
  5
78
100
AcDbEntity
  8
square holes
  6
ByLayer
 62
    6
370
   -1
100
AcDbPolyline
 90
    4
 70
    1
 43
0
 10
199.6116445323096
 20
93.55259394768649
 10
195.9881826128888
 20
107.0755567783111
 10
209.5111454435142
 20
110.699018697733
 10
213.1346073629351
 20
97.1760558671063
  0
LWPOLYLINE
  5
79
100
AcDbEntity
  8
square holes
  6
ByLayer
 62
    6
370
   -1
100
AcDbPolyline
 90
    4
 70
    1
 43
0
 10
194.6807902485759
 20
111.9531668077282
 10
191.0573283291551
 20
125.4761296383529
 10
204.5802911597805
 20
129.0995915577747
 10
208.2037530792013
 20
115.576628727148
  0
LWPOLYLINE
  5
7A
100
AcDbEntity
  8
square holes
  6
ByLayer
 62
    6
370
   -1
100
AcDbPolyline
 90
    4
 70
    1
 43
0
 10
189.7514306869843
 20
130.3550108749689
 10
186.1279687675635
 20
143.8779737055937
 10
199.6509315981888
 20
147.5014356250155
 10
203.2743935176097
 20
133.9784727943888
  0
LWPOLYLINE
  5
7B
100
AcDbEntity
  8
square holes
  6
ByLayer
 62
    6
370
   -1
100
AcDbPolyline
 90
    4
 70
    1
 43
0
 10
200.1571468270322
 20
72.00504535377416
 10
196.5336849076113
 20
85.5280081844009
 10
183.0107220769859
 20
81.9045462649791
 10
186.6341839964067
 20
68.38158343435438
  0
LWPOLYLINE
  5
7C
100
AcDbEntity
  8
square holes
  6
ByLayer
 62
    6
370
   -1
100
AcDbPolyline
 90
    4
 70
    1
 43
0
 10
181.7036645159329
 20
86.78240702115949
 10
178.0802025965121
 20
100.3053698517842
 10
191.6031654271374
 20
103.9288317712061
 10
195.2266273465583
 20
90.4058689405793
  0
LWPOLYLINE
  5
7D
100
AcDbEntity
  8
square holes
  6
ByLayer
 62
    6
370
   -1
100
AcDbPolyline
 90
    4
 70
    1
 43
0
 10
176.7728102321991
 20
105.1829798812012
 10
173.1493483127783
 20
118.7059427118259
 10
186.6723111434037
 20
122.3294046312477
 10
190.2957730628246
 20
108.806441800621
  0
LWPOLYLINE
  5
7E
100
AcDbEntity
  8
square holes
  6
ByLayer
 62
    6
370
   -1
100
AcDbPolyline
 90
    4
 70
    1
 43
0
 10
171.8434506706075
 20
123.5848239484419
 10
168.2199887511867
 20
137.1077867790667
 10
181.7429515818121
 20
140.7312486984885
 10
185.366413501233
 20
127.2082858678618
  0
LWPOLYLINE
  5
7F
100
AcDbEntity
  8
square holes
  6
ByLayer
 62
    6
370
   -1
100
AcDbPolyline
 90
    4
 70
    1
 43
0
 10
226.9135305095182
 20
60.19347993803439
 10
223.2900685900973
 20
73.71644276866098
 10
209.7671057594719
 20
70.09298084923918
 10
213.3905676788927
 20
56.57001801861449
  0
LWPOLYLINE
  5
80
100
AcDbEntity
  8
square holes
  6
ByLayer
 62
    6
370
   -1
100
AcDbPolyline
 90
    4
 70
    1
 43
0
 10
177.9685267133901
 20
32.87903792816408
 10
166.8619994281858
 20
41.40224458194277
 10
158.3387927744087
 20
30.29571729673867
 10
169.4453200596117
 20
21.77251064296146
  0
LWPOLYLINE
  5
81
100
AcDbEntity
  8
square holes
  6
ByLayer
 62
    6
370
   -1
100
AcDbPolyline
 90
    4
 70
    1
 43
0
 10
192.213284390838
 20
45.42889161162478
 10
183.2144862101741
 20
56.15370542370027
 10
172.4896723981002
 20
47.15490724303609
 10
181.4884705787633
 20
36.43009343096239
  0
LWPOLYLINE
  5
82
100
AcDbEntity
  8
square holes
  6
ByLayer
 62
    6
370
   -1
100
AcDbPolyline
 90
    4
 70
    1
 43
0
 10
208.7329630886587
 20
54.75285690327249
 10
202.2690503550219
 20
67.17130415612706
 10
189.8506031021688
 20
60.70739142248968
 10
196.3145158358051
 20
48.28894416963709
  0
LWPOLYLINE
  5
83
100
AcDbEntity
  8
square holes
  6
ByLayer
 62
    6
370
   -1
100
AcDbPolyline
 90
    4
 70
    1
 43
0
 10
81.52644382811528
 20
60.19347993803487
 10
85.14990574753617
 20
73.71644276866166
 10
98.67286857816148
 20
70.09298084923978
 10
95.04940665874071
 20
56.57001801861509
  0
LWPOLYLINE
  5
84
100
AcDbEntity
  8
square holes
  6
ByLayer
 62
    6
370
   -1
100
AcDbPolyline
 90
    4
 70
    1
 43
0
 10
130.4714476242434
 20
32.87903792816468
 10
141.5779749094476
 20
41.40224458194336
 10
150.1011815632247
 20
30.29571729673927
 10
138.9946542780218
 20
21.77251064296209
  0
LWPOLYLINE
  5
85
100
AcDbEntity
  8
square holes
  6
ByLayer
 62
    6
370
   -1
100
AcDbPolyline
 90
    4
 70
    1
 43
0
 10
99.70701124897479
 20
54.75285690327308
 10
106.1709239826115
 20
67.17130415612777
 10
118.5893712354646
 20
60.70739142249039
 10
112.1254585018284
 20
48.28894416963757
  0
LWPOLYLINE
  5
86
100
AcDbEntity
  8
square holes
  6
ByLayer
 62
    6
370
   -1
100
AcDbPolyline
 90
    5
 70
    0
 43
0
 10
234.987021899825
 20
89.22584134791327
 10
231.3635599804041
 20
102.74880417854
 10
217.8405971497788
 20
99.12534225911816
 10
221.4640590691996
 20
85.60237942849346
 10
234.987021899825
 20
89.22584134791327
  0
LWPOLYLINE
  5
87
100
AcDbEntity
  8
0
  6
ByLayer
 62
    6
370
   -1
100
AcDbPolyline
 90
   71
 70
    1
 43
0
 10
170.5424705348804
 20
7.398877266728969
 42
0.2584110733083036
 10
168.8471954818918
 20
8.337725772023958
 10
139.5935762662341
 20
8.337725772025175
 42
0.2584110733083692
 10
137.8983012132457
 20
7.398877266729576
 42
-0.9562066795772949
 10
130.0713599378597
 20
11.82344203375377
 42
0.2625993909147851
 10
129.9851996508795
 20
13.7868254012058
 42
0.2166553371082151
 10
76.98712545242918
 20
49.01333042699656
 10
73.30913861177065
 20
49.82995230948628
 42
0.1351444292854777
 10
72.24871151327601
 20
49.77669986108887
 42
-0.8329001451663036
 10
67.99982579944999
 20
57.54189685967027
 42
0.1579172246579243
 10
68.6702072358479
 20
58.57625175772569
 10
69.84515430035134
 20
62.93016241385749
 42
0.4127302261028242
 10
69.14292915925647
 20
64.15359889481454
 10
6.931175516056549
 20
80.82333776138078
 42
0.1567882446457905
 10
5.708447798481858
 20
80.76307805111024
 42
-0.8487044075956061
 10
1.268308735977222
 20
88.45358706994327
 42
0.1567861554281881
 10
1.931850476353517
 20
89.48235752008219
 10
22.89851006367588
 20
167.7304605587894
 42
0.1568237143068575
 10
22.83815343712714
 20
168.9534474724009
 42
-0.8487047955112982
 10
30.52805279238952
 20
173.394643650198
 42
0.1567512262098381
 10
31.5566506747079
 20
172.7313133958287
 10
60.65481941762764
 20
164.9368586980352
 42
0.3755991499662102
 10
61.83643070373879
 20
165.5176885367215
 42
-0.3758888868988945
 10
73.66500980434228
 20
171.3246589952749
 10
86.05158595585253
 20
167.9922047491947
 42
0.246972364525841
 10
86.95994756207969
 20
168.1967055822158
 42
-0.247003254873017
 10
94.07466218476588
 20
169.7980168587017
 10
94.20736338392203
 20
169.7622857607687
 10
95.41399176054379
 20
169.438968503105
 42
0.3023685427435558
 10
97.51396412250681
 20
170.1476151154618
 42
-0.6666588047743108
 10
105.53534563186
 20
167.9855410965975
 42
0.3031768815036523
 10
107.0004317184986
 20
166.3159726980786
 10
108.1949835392434
 20
165.9959819986516
 10
108.3334801201006
 20
165.9586904374188
 42
-0.281099949393544
 10
115.5103172645317
 20
158.4034439533017
 42
0.2829760819237661
 10
116.2347196973622
 20
157.6461352467102
 10
152.808137000659
 20
148.0704235919237
 42
0.1320050739223414
 10
155.4030211076836
 20
148.0686241544186
 10
192.2053725944095
 20
157.6489621533808
 42
0.2832761255909072
 10
192.9310743495652
 20
158.4063373474075
 42
-0.2810200637410207
 10
200.1072879415376
 20
165.9586894447949
 10
200.2734894004613
 20
166.0034408158664
 10
201.4432321696931
 20
166.3186407260896
 42
0.3027205086853638
 10
202.9055679513577
 20
167.9869210815557
 42
-0.6666649630854773
 10
210.9276168689421
 20
170.1466310103637
 42
0.3028294809027864
 10
213.0306361617576
 20
169.4382217343681
 10
214.1996935900874
 20
169.7532077273203
 10
214.366111813301
 20
169.7980174643005
 42
-0.2470031521496438
 10
221.4808221800077
 20
168.1967051097065
 42
0.2469723854108563
 10
222.389183846166
 20
167.9922042256192
 10
234.7757619437831
 20
171.3246589952743
 42
-0.3758888868988967
 10
246.6043410443861
 20
165.5176885367207
 42
0.3755991499664817
 10
247.7859411104627
 20
164.936855692649
 10
276.8911444461413
 20
172.7373270873969
 42
0.1561265516676068
 10
277.9157293932269
 20
173.3983094037086
 42
-0.8487014234291916
 10
285.600955427722
 20
168.9490426667965
 42
0.1574463588610888
 10
285.5405782122717
 20
167.7214242996094
 10
306.5149311160566
 20
89.47533928586451
 42
0.1561618374791188
 10
307.1761263069858
 20
88.45057934721514
 42
-0.8487017536791369
 10
302.7279152806076
 20
80.76474156979836
 42
0.1574112559049027
 10
301.5005532434829
 20
80.82502189106856
 10
239.2978425888688
 20
64.15359889481398
 42
0.4127302261028551
 10
238.5956174477739
 20
62.93016241385689
 10
239.0095530921904
 20
61.41606170930567
 10
239.7930110071504
 20
58.55031627996638
 42
0.1556128911179922
 10
240.4546537460507
 20
57.53071028979328
 42
-0.8312366226327038
 10
236.1920602348476
 20
49.77669986108828
 42
0.1351444292856296
 10
235.1316331363518
 20
49.82995230948589
 10
231.4536462956912
 20
49.01333042699476
 42
0.2166553331585525
 10
178.4555720972457
 20
13.78682540120531
 42
0.2625993909147799
 10
178.3694118102653
 20
11.82344203375316
 42
-0.9562066795772275
  0
CIRCLE
  5
88
100
AcDbEntity
  8
holes
  6
ByLayer
 62
    6
370
   -1
100
AcDbCircle
 10
123.5160379395906
 20
62.26753759642469
 40
1
  0
CIRCLE
  5
89
100
AcDbEntity
  8
holes
  6
ByLayer
 62
    6
370
   -1
100
AcDbCircle
 10
184.9247338085346
 20
62.26753759642398
 40
1
  0
CIRCLE
  5
8A
100
AcDbEntity
  8
holes
  6
ByLayer
 62
    6
370
   -1
100
AcDbCircle
 10
237.6026406087767
 20
54.04990275923058
 40
1.5
  0
CIRCLE
  5
8B
100
AcDbEntity
  8
holes
  6
ByLayer
 62
    6
370
   -1
100
AcDbCircle
 10
304.3187683562008
 20
84.97415797731639
 40
1.5
  0
CIRCLE
  5
8C
100
AcDbEntity
  8
holes
  6
ByLayer
 62
    6
370
   -1
100
AcDbCircle
 10
281.3917570321078
 20
170.5404724850336
 40
1.5
  0
CIRCLE
  5
8D
100
AcDbEntity
  8
holes
  6
ByLayer
 62
  256
370
   -1
100
AcDbCircle
 10
207.3665349680393
 20
167.3955047509794
 40
1.5
  0
CIRCLE
  5
8E
100
AcDbEntity
  8
holes
  6
ByLayer
 62
    6
370
   -1
100
AcDbCircle
 10
101.0742089789377
 20
167.3954057189486
 40
1.5
  0
CIRCLE
  5
8F
100
AcDbEntity
  8
holes
  6
ByLayer
 62
    6
370
   -1
100
AcDbCircle
 10
27.04901459918766
 20
170.5404724482127
 40
1.5
  0
CIRCLE
  5
90
100
AcDbEntity
  8
holes
  6
ByLayer
 62
    6
370
   -1
100
AcDbCircle
 10
4.122003391924583
 20
84.97415797731696
 40
1.5
  0
CIRCLE
  5
91
100
AcDbEntity
  8
holes
  6
ByLayer
 62
    6
370
   -1
100
AcDbCircle
 10
134.0839323440203
 20
9.786468129815972
 40
1.5
  0
CIRCLE
  5
92
100
AcDbEntity
  8
holes
  6
ByLayer
 62
    6
370
   -1
100
AcDbCircle
 10
174.3568394041049
 20
9.786468129815489
 40
1.5
  0
CIRCLE
  5
93
100
AcDbEntity
  8
holes
  6
ByLayer
 62
    6
370
   -1
100
AcDbCircle
 10
70.8381311393486
 20
54.04990275923109
 40
1.5
  0
ARC
  5
94
100
AcDbEntity
  8
holes
  6
ByLayer
 62
  256
370
   -1
100
AcDbCircle
 10
0
 20
0
 40
0
100
AcDbArc
 50
0
 51
0
  0
ARC
  5
95
100
AcDbEntity
  8
holes
  6
ByLayer
 62
  256
370
   -1
100
AcDbCircle
 10
0
 20
0
 40
0
100
AcDbArc
 50
0
 51
0
  0
ARC
  5
96
100
AcDbEntity
  8
holes
  6
ByLayer
 62
  256
370
   -1
100
AcDbCircle
 10
0
 20
0
 40
0
100
AcDbArc
 50
0
 51
0
  0
ARC
  5
97
100
AcDbEntity
  8
holes
  6
ByLayer
 62
  256
370
   -1
100
AcDbCircle
 10
0
 20
0
 40
0
100
AcDbArc
 50
0
 51
0
  0
LWPOLYLINE
  5
98
100
AcDbEntity
  8
holes
  6
ByLayer
 62
  256
370
   -1
100
AcDbPolyline
 90
    3
 70
    1
 43
0
 10
7.519613453779389
 20
11.01825425006368
 42
1.633177872838384e+016
 10
7.519613453779389
 20
11.01825425006368
 42
1.633177872838384e+016
 10
7.519613453779389
 20
11.01825425006368
 42
1.633177872838384e+016
  0
LWPOLYLINE
  5
99
100
AcDbEntity
  8
square holes
  6
ByLayer
 62
    6
370
   -1
100
AcDbPolyline
 90
    4
 70
    1
 43
0
 10
116.2266899467955
 20
45.42889161162549
 10
125.2254881274594
 20
56.15370542370087
 10
135.9503019395332
 20
47.15490724303669
 10
126.9515037588702
 20
36.43009343096298
  0
ENDSEC
  0
SECTION
  2
OBJECTS
  0
DICTIONARY
  5
C
330
0
100
AcDbDictionary
281
    1
  3
ACAD_GROUP
350
D
  0
DICTIONARY
  5
D
330
C
100
AcDbDictionary
281
    1
  0
ENDSEC
  0
EOF
