999
dxfrw 0.6.3
  0
SECTION
  2
HEADER
  9
$ACADVER
  1
AC1021
  9
$DWGCODEPAGE
  3
ANSI_1252
  9
$INSBASE
 10
0
 20
0
 30
0
  9
$EXTMIN
 10
6.78254369052941
 20
0.4060064070192704
 30
0
  9
$EXTMAX
 10
336.1897374482349
 20
196.670460183101
 30
0
  9
$LIMMIN
 10
0
 20
0
  9
$LIMMAX
 10
420
 20
297
  9
$ORTHOMODE
 70
    0
  9
$REGENMODE
 70
    1
  9
$FILLMODE
 70
    1
  9
$QTEXTMODE
 70
    0
  9
$MIRRTEXT
 70
    0
  9
$LTSCALE
 40
1
  9
$ATTMODE
 70
    0
  9
$TEXTSIZE
 40
2.5
  9
$TRACEWID
 40
15.68
  9
$TEXTSTYLE
  7
STANDARD
  9
$CLAYER
  8
0
  9
$CELTYPE
  6
BYLAYER
  9
$CECOLOR
 62
  256
  9
$CELTSCALE
 40
1
  9
$DISPSILH
 70
    0
  9
$DIMSCALE
 40
2.5
  9
$DIMASZ
 40
2.5
  9
$DIMEXO
 40
0.625
  9
$DIMDLI
 40
3.75
  9
$DIMRND
 40
0
  9
$DIMDLE
 40
0
  9
$DIMEXE
 40
1.25
  9
$DIMTP
 40
0
  9
$DIMTM
 40
0
  9
$DIMTXT
 40
2.5
  9
$DIMCEN
 40
2.5
  9
$DIMTSZ
 40
0
  9
$DIMTOL
 70
    0
  9
$DIMLIM
 70
    0
  9
$DIMTIH
 70
    0
  9
$DIMTOH
 70
    0
  9
$DIMSE1
 70
    0
  9
$DIMSE2
 70
    0
  9
$DIMTAD
 70
    1
  9
$DIMZIN
 70
    8
  9
$DIMBLK
  1

  9
$DIMASO
 70
    1
  9
$DIMSHO
 70
    1
  9
$DIMPOST
  1

  9
$DIMAPOST
  1

  9
$DIMALT
 70
    0
  9
$DIMALTD
 70
    3
  9
$DIMALTF
 40
0.03937
  9
$DIMLFAC
 40
1
  9
$DIMTOFL
 70
    1
  9
$DIMTVP
 40
0
  9
$DIMTIX
 70
    0
  9
$DIMSOXD
 70
    0
  9
$DIMSAH
 70
    0
  9
$DIMBLK1
  1

  9
$DIMBLK2
  1

  9
$DIMSTYLE
  2
STANDARD
  9
$DIMCLRD
 70
    0
  9
$DIMCLRE
 70
    0
  9
$DIMCLRT
 70
    0
  9
$DIMTFAC
 40
1
  9
$DIMGAP
 40
0.625
  9
$DIMJUST
 70
    0
  9
$DIMSD1
 70
    0
  9
$DIMSD2
 70
    0
  9
$DIMTOLJ
 70
    0
  9
$DIMTZIN
 70
    8
  9
$DIMALTZ
 70
    0
  9
$DIMALTTZ
 70
    0
  9
$DIMUPT
 70
    0
  9
$DIMDEC
 70
    2
  9
$DIMTDEC
 70
    2
  9
$DIMALTU
 70
    2
  9
$DIMALTTD
 70
    3
  9
$DIMTXSTY
  7
STANDARD
  9
$DIMAUNIT
 70
    0
  9
$DIMADEC
 70
    0
  9
$DIMALTRND
 40
0
  9
$DIMAZIN
 70
    0
  9
$DIMDSEP
 70
   44
  9
$DIMATFIT
 70
    3
  9
$DIMFRAC
 70
    0
  9
$DIMLDRBLK
  1
STANDARD
  9
$DIMLUNIT
 70
    2
  9
$DIMLWD
 70
   -2
  9
$DIMLWE
 70
   -2
  9
$DIMTMOVE
 70
    0
  9
$DIMFXL
 40
1
  9
$DIMFXLON
 70
    0
  9
$DIMJOGANG
 40
0.7854
  9
$DIMTFILL
 70
    0
  9
$DIMTFILLCLR
 70
    0
  9
$DIMARCSYM
 70
    0
  9
$DIMLTYPE
  6

  9
$DIMLTEX1
  6

  9
$DIMLTEX2
  6

  9
$LUNITS
 70
    2
  9
$LUPREC
 70
    4
  9
$SKETCHINC
 40
1
  9
$FILLETRAD
 40
0
  9
$AUNITS
 70
    0
  9
$AUPREC
 70
    2
  9
$MENU
  1
.
  9
$ELEVATION
 40
0
  9
$PELEVATION
 40
0
  9
$THICKNESS
 40
0
  9
$LIMCHECK
 70
    0
  9
$CHAMFERA
 40
0
  9
$CHAMFERB
 40
0
  9
$CHAMFERC
 40
0
  9
$CHAMFERD
 40
0
  9
$SKPOLY
 70
    0
  9
$USRTIMER
 70
    1
  9
$ANGBASE
 50
0
  9
$ANGDIR
 70
    0
  9
$PDMODE
 70
   34
  9
$PDSIZE
 40
0
  9
$PLINEWID
 40
0
  9
$SPLFRAME
 70
    0
  9
$SPLINETYPE
 70
    2
  9
$SPLINESEGS
 70
    8
  9
$HANDSEED
  5
20000
  9
$SURFTAB1
 70
    6
  9
$SURFTAB2
 70
    6
  9
$SURFTYPE
 70
    6
  9
$SURFU
 70
    6
  9
$SURFV
 70
    6
  9
$UCSBASE
  2

  9
$UCSNAME
  2

  9
$UCSORG
 10
0
 20
0
 30
0
  9
$UCSXDIR
 10
1
 20
0
 30
0
  9
$UCSYDIR
 10
0
 20
1
 30
0
  9
$UCSORTHOREF
  2

  9
$UCSORTHOVIEW
 70
    0
  9
$UCSORGTOP
 10
0
 20
0
 30
0
  9
$UCSORGBOTTOM
 10
0
 20
0
 30
0
  9
$UCSORGLEFT
 10
0
 20
0
 30
0
  9
$UCSORGRIGHT
 10
0
 20
0
 30
0
  9
$UCSORGFRONT
 10
0
 20
0
 30
0
  9
$UCSORGBACK
 10
0
 20
0
 30
0
  9
$PUCSBASE
  2

  9
$PUCSNAME
  2

  9
$PUCSORG
 10
0
 20
0
 30
0
  9
$PUCSXDIR
 10
1
 20
0
 30
0
  9
$PUCSYDIR
 10
0
 20
1
 30
0
  9
$PUCSORTHOREF
  2

  9
$PUCSORTHOVIEW
 70
    0
  9
$PUCSORGTOP
 10
0
 20
0
 30
0
  9
$PUCSORGBOTTOM
 10
0
 20
0
 30
0
  9
$PUCSORGLEFT
 10
0
 20
0
 30
0
  9
$PUCSORGRIGHT
 10
0
 20
0
 30
0
  9
$PUCSORGFRONT
 10
0
 20
0
 30
0
  9
$PUCSORGBACK
 10
0
 20
0
 30
0
  9
$USERI1
 70
    0
  9
$USERI2
 70
    0
  9
$USERI3
 70
    0
  9
$USERI4
 70
    0
  9
$USERI5
 70
    0
  9
$USERR1
 40
0
  9
$USERR2
 40
0
  9
$USERR3
 40
0
  9
$USERR4
 40
0
  9
$USERR5
 40
0
  9
$WORLDVIEW
 70
    1
  9
$SHADEDGE
 70
    3
  9
$SHADEDIF
 70
   70
  9
$TILEMODE
 70
    1
  9
$MAXACTVP
 70
   64
  9
$PINSBASE
 10
0
 20
0
 30
0
  9
$PLIMCHECK
 70
    0
  9
$PEXTMIN
 10
0
 20
0
 30
0
  9
$PEXTMAX
 10
0
 20
0
 30
0
  9
$GRIDMODE
 70
    1
  9
$SNAPSTYLE
 70
    0
  9
$PLIMMIN
 10
0
 20
0
  9
$PLIMMAX
 10
210
 20
297
  9
$UNITMODE
 70
    0
  9
$VISRETAIN
 70
    1
  9
$PLINEGEN
 70
    0
  9
$PSLTSCALE
 70
    1
  9
$TREEDEPTH
 70
 3020
  9
$CMLSTYLE
  2
Standard
  9
$CMLJUST
 70
    0
  9
$CMLSCALE
 40
20
  9
$PROXYGRAPHICS
 70
    1
  9
$MEASUREMENT
 70
    1
  9
$CELWEIGHT
370
   -1
  9
$ENDCAPS
280
    0
  9
$JOINSTYLE
280
    0
  9
$LWDISPLAY
290
    0
  9
$INSUNITS
 70
    4
  9
$HYPERLINKBASE
  1

  9
$STYLESHEET
  1

  9
$XEDIT
290
    1
  9
$CEPSNTYPE
380
    0
  9
$PSTYLEMODE
290
    1
  9
$EXTNAMES
290
    1
  9
$PSVPSCALE
 40
1
  9
$OLESTARTUP
290
    0
  9
$SORTENTS
280
  127
  9
$INDEXCTL
280
    0
  9
$HIDETEXT
280
    1
  9
$XCLIPFRAME
290
    0
  9
$HALOGAP
280
    0
  9
$OBSCOLOR
 70
  257
  9
$OBSLTYPE
280
    0
  9
$INTERSECTIONDISPLAY
280
    0
  9
$INTERSECTIONCOLOR
 70
  257
  9
$DIMASSOC
280
    1
  9
$PROJECTNAME
  1

  9
$CAMERADISPLAY
290
    0
  9
$LENSLENGTH
 40
50
  9
$CAMERAHEIGHT
 40
0
  9
$STEPSPERSEC
 40
2
  9
$STEPSIZE
 40
50
  9
$3DDWFPREC
 40
2
  9
$PSOLWIDTH
 40
5
  9
$PSOLHEIGHT
 40
80
  9
$LOFTANG1
 40
1.570796326794897
  9
$LOFTANG2
 40
1.570796326794897
  9
$LOFTMAG1
 40
0
  9
$LOFTMAG2
 40
0
  9
$LOFTPARAM
 70
    7
  9
$LOFTNORMALS
280
    1
  9
$LATITUDE
 40
1
  9
$LONGITUDE
 40
1
  9
$NORTHDIRECTION
 40
0
  9
$TIMEZONE
 70
-8000
  9
$LIGHTGLYPHDISPLAY
280
    1
  9
$TILEMODELIGHTSYNCH
280
    1
  9
$SOLIDHIST
280
    1
  9
$SHOWHIST
280
    1
  9
$DWFFRAME
280
    2
  9
$DGNFRAME
280
    0
  9
$REALWORLDSCALE
290
    1
  9
$INTERFERECOLOR
 62
    1
  9
$CSHADOW
280
    0
  9
$SHADOWPLANELOCATION
 40
0
  0
ENDSEC
  0
SECTION
  2
CLASSES
  0
ENDSEC
  0
SECTION
  2
TABLES
  0
TABLE
  2
VPORT
  5
8
330
0
100
AcDbSymbolTable
 70
    1
  0
VPORT
  5
31
330
2
100
AcDbSymbolTableRecord
100
AcDbViewportTableRecord
  2
*ACTIVE
 70
    0
 10
0
 20
0
 11
1
 21
1
 12
163.3532632711037
 22
99.29316002753363
 13
0
 23
0
 14
10
 24
10
 15
10
 25
10
 16
0
 26
0
 36
1
 17
0
 27
0
 37
0
 40
181.0765585018248
 41
1.731132075471698
 42
50
 43
0
 44
0
 50
0
 51
0
 71
    0
 72
  100
 73
    1
 74
    3
 75
    0
 76
    1
 77
    0
 78
    0
281
    0
 65
    1
110
0
120
0
130
0
111
1
121
0
131
0
112
0
122
1
132
0
 79
    0
146
0
348
10020
 60
    7
 61
    5
292
1
282
    1
141
0
142
0
 63
  250
421
3358443
  0
ENDTAB
  0
TABLE
  2
LTYPE
  5
5
330
0
100
AcDbSymbolTable
 70
    4
  0
LTYPE
  5
14
330
5
100
AcDbSymbolTableRecord
100
AcDbLinetypeTableRecord
  2
ByBlock
 70
    0
  3

 72
   65
 73
    0
 40
0
  0
LTYPE
  5
15
330
5
100
AcDbSymbolTableRecord
100
AcDbLinetypeTableRecord
  2
ByLayer
 70
    0
  3

 72
   65
 73
    0
 40
0
  0
LTYPE
  5
16
330
5
100
AcDbSymbolTableRecord
100
AcDbLinetypeTableRecord
  2
Continuous
 70
    0
  3
Solid line
 72
   65
 73
    0
 40
0
  0
LTYPE
  5
32
330
5
100
AcDbSymbolTableRecord
100
AcDbLinetypeTableRecord
  2
DOT
 70
    0
  3
Dot . . . . . . . . . . . . . . . . . . . . . .
 72
   65
 73
    2
 40
6.35
 49
0
 74
    0
 49
-6.35
 74
    0
  0
LTYPE
  5
33
330
5
100
AcDbSymbolTableRecord
100
AcDbLinetypeTableRecord
  2
DOTTINY
 70
    0
  3
Dot (.15x) .....................................
 72
   65
 73
    2
 40
0.9525
 49
0
 74
    0
 49
-0.9525
 74
    0
  0
LTYPE
  5
34
330
5
100
AcDbSymbolTableRecord
100
AcDbLinetypeTableRecord
  2
DOT2
 70
    0
  3
Dot (.5x) .....................................
 72
   65
 73
    2
 40
3.175
 49
0
 74
    0
 49
-3.175
 74
    0
  0
LTYPE
  5
35
330
5
100
AcDbSymbolTableRecord
100
AcDbLinetypeTableRecord
  2
DOTX2
 70
    0
  3
Dot (2x) .  .  .  .  .  .  .  .  .  .  .  .  .
 72
   65
 73
    2
 40
12.7
 49
0
 74
    0
 49
-12.7
 74
    0
  0
LTYPE
  5
36
330
5
100
AcDbSymbolTableRecord
100
AcDbLinetypeTableRecord
  2
DASHED
 70
    0
  3
Dashed _ _ _ _ _ _ _ _ _ _ _ _ _ _ _ _ _
 72
   65
 73
    2
 40
19.05
 49
12.7
 74
    0
 49
-6.35
 74
    0
  0
LTYPE
  5
37
330
5
100
AcDbSymbolTableRecord
100
AcDbLinetypeTableRecord
  2
DASHEDTINY
 70
    0
  3
Dashed (.15x) _ _ _ _ _ _ _ _ _ _ _ _ _ _ _ _ _
 72
   65
 73
    2
 40
2.8575
 49
1.905
 74
    0
 49
-0.9525
 74
    0
  0
LTYPE
  5
38
330
5
100
AcDbSymbolTableRecord
100
AcDbLinetypeTableRecord
  2
DASHED2
 70
    0
  3
Dashed (.5x) _ _ _ _ _ _ _ _ _ _ _ _ _ _ _ _ _
 72
   65
 73
    2
 40
9.524999999999999
 49
6.35
 74
    0
 49
-3.175
 74
    0
  0
LTYPE
  5
39
330
5
100
AcDbSymbolTableRecord
100
AcDbLinetypeTableRecord
  2
DASHEDX2
 70
    0
  3
Dashed (2x) ____  ____  ____  ____  ____  ___
 72
   65
 73
    2
 40
38.09999999999999
 49
25.4
 74
    0
 49
-12.7
 74
    0
  0
LTYPE
  5
3A
330
5
100
AcDbSymbolTableRecord
100
AcDbLinetypeTableRecord
  2
DASHDOT
 70
    0
  3
Dash dot __ . __ . __ . __ . __ . __ . __ . __
 72
   65
 73
    4
 40
25.4
 49
12.7
 74
    0
 49
-6.35
 74
    0
 49
0
 74
    0
 49
-6.35
 74
    0
  0
LTYPE
  5
3B
330
5
100
AcDbSymbolTableRecord
100
AcDbLinetypeTableRecord
  2
DASHDOTTINY
 70
    0
  3
Dash dot (.15x) _._._._._._._._._._._._._._._.
 72
   65
 73
    4
 40
3.81
 49
1.905
 74
    0
 49
-0.9525
 74
    0
 49
0
 74
    0
 49
-0.9525
 74
    0
  0
LTYPE
  5
3C
330
5
100
AcDbSymbolTableRecord
100
AcDbLinetypeTableRecord
  2
DASHDOT2
 70
    0
  3
Dash dot (.5x) _._._._._._._._._._._._._._._.
 72
   65
 73
    4
 40
12.7
 49
6.35
 74
    0
 49
-3.175
 74
    0
 49
0
 74
    0
 49
-3.175
 74
    0
  0
LTYPE
  5
3D
330
5
100
AcDbSymbolTableRecord
100
AcDbLinetypeTableRecord
  2
DASHDOTX2
 70
    0
  3
Dash dot (2x) ____  .  ____  .  ____  .  ___
 72
   65
 73
    4
 40
50.8
 49
25.4
 74
    0
 49
-12.7
 74
    0
 49
0
 74
    0
 49
-12.7
 74
    0
  0
LTYPE
  5
3E
330
5
100
AcDbSymbolTableRecord
100
AcDbLinetypeTableRecord
  2
DIVIDE
 70
    0
  3
Divide ____ . . ____ . . ____ . . ____ . . ____
 72
   65
 73
    6
 40
31.75
 49
12.7
 74
    0
 49
-6.35
 74
    0
 49
0
 74
    0
 49
-6.35
 74
    0
 49
0
 74
    0
 49
-6.35
 74
    0
  0
LTYPE
  5
3F
330
5
100
AcDbSymbolTableRecord
100
AcDbLinetypeTableRecord
  2
DIVIDETINY
 70
    0
  3
Divide (.15x) __..__..__..__..__..__..__..__.._
 72
   65
 73
    6
 40
4.7625
 49
1.905
 74
    0
 49
-0.9525
 74
    0
 49
0
 74
    0
 49
-0.9525
 74
    0
 49
0
 74
    0
 49
-0.9525
 74
    0
  0
LTYPE
  5
40
330
5
100
AcDbSymbolTableRecord
100
AcDbLinetypeTableRecord
  2
DIVIDE2
 70
    0
  3
Divide (.5x) __..__..__..__..__..__..__..__.._
 72
   65
 73
    6
 40
15.875
 49
6.35
 74
    0
 49
-3.175
 74
    0
 49
0
 74
    0
 49
-3.175
 74
    0
 49
0
 74
    0
 49
-3.175
 74
    0
  0
LTYPE
  5
41
330
5
100
AcDbSymbolTableRecord
100
AcDbLinetypeTableRecord
  2
DIVIDEX2
 70
    0
  3
Divide (2x) ________  .  .  ________  .  .  _
 72
   65
 73
    6
 40
63.5
 49
25.4
 74
    0
 49
-12.7
 74
    0
 49
0
 74
    0
 49
-12.7
 74
    0
 49
0
 74
    0
 49
-12.7
 74
    0
  0
LTYPE
  5
42
330
5
100
AcDbSymbolTableRecord
100
AcDbLinetypeTableRecord
  2
BORDER
 70
    0
  3
Border __ __ . __ __ . __ __ . __ __ . __ __ .
 72
   65
 73
    6
 40
44.45
 49
12.7
 74
    0
 49
-6.35
 74
    0
 49
12.7
 74
    0
 49
-6.35
 74
    0
 49
0
 74
    0
 49
-6.35
 74
    0
  0
LTYPE
  5
43
330
5
100
AcDbSymbolTableRecord
100
AcDbLinetypeTableRecord
  2
BORDERTINY
 70
    0
  3
Border (.15x) __.__.__.__.__.__.__.__.__.__.__.
 72
   65
 73
    6
 40
6.6675
 49
1.905
 74
    0
 49
-0.9525
 74
    0
 49
1.905
 74
    0
 49
-0.9525
 74
    0
 49
0
 74
    0
 49
-0.9525
 74
    0
  0
LTYPE
  5
44
330
5
100
AcDbSymbolTableRecord
100
AcDbLinetypeTableRecord
  2
BORDER2
 70
    0
  3
Border (.5x) __.__.__.__.__.__.__.__.__.__.__.
 72
   65
 73
    6
 40
22.225
 49
6.35
 74
    0
 49
-3.175
 74
    0
 49
6.35
 74
    0
 49
-3.175
 74
    0
 49
0
 74
    0
 49
-3.175
 74
    0
  0
LTYPE
  5
45
330
5
100
AcDbSymbolTableRecord
100
AcDbLinetypeTableRecord
  2
BORDERX2
 70
    0
  3
Border (2x) ____  ____  .  ____  ____  .  ___
 72
   65
 73
    6
 40
88.89999999999999
 49
25.4
 74
    0
 49
-12.7
 74
    0
 49
25.4
 74
    0
 49
-12.7
 74
    0
 49
0
 74
    0
 49
-12.7
 74
    0
  0
LTYPE
  5
46
330
5
100
AcDbSymbolTableRecord
100
AcDbLinetypeTableRecord
  2
CENTER
 70
    0
  3
Center ____ _ ____ _ ____ _ ____ _ ____ _ ____
 72
   65
 73
    4
 40
50.8
 49
31.75
 74
    0
 49
-6.35
 74
    0
 49
6.35
 74
    0
 49
-6.35
 74
    0
  0
LTYPE
  5
47
330
5
100
AcDbSymbolTableRecord
100
AcDbLinetypeTableRecord
  2
CENTERTINY
 70
    0
  3
Center (.15x) ___ _ ___ _ ___ _ ___ _ ___ _ ___
 72
   65
 73
    4
 40
7.62
 49
4.7625
 74
    0
 49
-0.9525
 74
    0
 49
0.9525
 74
    0
 49
-0.9525
 74
    0
  0
LTYPE
  5
48
330
5
100
AcDbSymbolTableRecord
100
AcDbLinetypeTableRecord
  2
CENTER2
 70
    0
  3
Center (.5x) ___ _ ___ _ ___ _ ___ _ ___ _ ___
 72
   65
 73
    4
 40
28.575
 49
19.05
 74
    0
 49
-3.175
 74
    0
 49
3.175
 74
    0
 49
-3.175
 74
    0
  0
LTYPE
  5
49
330
5
100
AcDbSymbolTableRecord
100
AcDbLinetypeTableRecord
  2
CENTERX2
 70
    0
  3
Center (2x) ________  __  ________  __  _____
 72
   65
 73
    4
 40
101.6
 49
63.5
 74
    0
 49
-12.7
 74
    0
 49
12.7
 74
    0
 49
-12.7
 74
    0
  0
ENDTAB
  0
TABLE
  2
LAYER
  5
2
330
0
100
AcDbSymbolTable
 70
    1
  0
LAYER
  5
10
330
2
100
AcDbSymbolTableRecord
100
AcDbLayerTableRecord
  2
0
 70
    0
 62
    7
  6
CONTINUOUS
370
    0
390
F
  0
LAYER
  5
4A
330
2
100
AcDbSymbolTableRecord
100
AcDbLayerTableRecord
  2
12mm from switch
 70
    0
 62
    7
  6
CONTINUOUS
370
    0
390
F
  0
ENDTAB
  0
TABLE
  2
STYLE
  5
3
330
0
100
AcDbSymbolTable
 70
    3
  0
STYLE
  5
4B
330
2
100
AcDbSymbolTableRecord
100
AcDbTextStyleTableRecord
  2
Standard
 70
    0
 40
0
 41
1
 50
0
 71
    0
 42
1
  3
txt
  4

  0
ENDTAB
  0
TABLE
  2
VIEW
  5
6
330
0
100
AcDbSymbolTable
 70
    0
  0
ENDTAB
  0
TABLE
  2
UCS
  5
7
330
0
100
AcDbSymbolTable
 70
    0
  0
ENDTAB
  0
TABLE
  2
APPID
  5
9
330
0
100
AcDbSymbolTable
 70
    1
  0
APPID
  5
12
330
9
100
AcDbSymbolTableRecord
100
AcDbRegAppTableRecord
  2
ACAD
 70
    0
  0
APPID
  5
4C
330
9
100
AcDbSymbolTableRecord
100
AcDbRegAppTableRecord
  2
LibreCad
 70
    0
  0
ENDTAB
  0
TABLE
  2
DIMSTYLE
  5
A
330
0
100
AcDbSymbolTable
 70
    1
100
AcDbDimStyleTable
 71
    1
  0
DIMSTYLE
105
4D
330
A
100
AcDbSymbolTableRecord
100
AcDbDimStyleTableRecord
  2
Standard
 70
    0
 40
2.5
 41
2.5
 42
0.625
 43
0.38
 44
1.25
 45
0
 46
0
 47
0
 48
0
 49
1
140
2.5
141
0.09
142
0
143
25.4
144
1
145
0
146
1
147
0.625
148
0
 71
    0
 72
    0
 73
    0
 74
    1
 75
    0
 76
    0
 77
    0
 78
    8
 79
    0
170
    0
171
    2
172
    0
173
    0
174
    0
175
    0
176
    0
177
    0
178
    0
179
    0
271
    2
272
    4
273
    2
274
    2
275
    0
276
    0
277
    2
278
   44
279
    0
280
    0
281
    0
282
    0
283
    1
284
    0
285
    0
286
    0
288
    0
289
    3
340
STANDARD
341

371
   -2
372
   -2
  0
ENDTAB
  0
TABLE
  2
BLOCK_RECORD
  5
1
330
0
100
AcDbSymbolTable
 70
    2
  0
BLOCK_RECORD
  5
1F
330
1
100
AcDbSymbolTableRecord
100
AcDbBlockTableRecord
  2
*Model_Space
 70
    0
280
    1
281
    0
  0
BLOCK_RECORD
  5
1E
330
1
100
AcDbSymbolTableRecord
100
AcDbBlockTableRecord
  2
*Paper_Space
 70
    0
280
    1
281
    0
  0
ENDTAB
  0
ENDSEC
  0
SECTION
  2
BLOCKS
  0
BLOCK
  5
20
330
1F
100
AcDbEntity
  8
0
100
AcDbBlockBegin
  2
*Model_Space
 70
    0
 10
0
 20
0
 30
0
  3
*Model_Space
  1

  0
ENDBLK
  5
21
330
1F
100
AcDbEntity
  8
0
100
AcDbBlockEnd
  0
BLOCK
  5
1C
330
1B
100
AcDbEntity
  8
0
100
AcDbBlockBegin
  2
*Paper_Space
 70
    0
 10
0
 20
0
 30
0
  3
*Paper_Space
  1

  0
ENDBLK
  5
1D
330
1F
100
AcDbEntity
  8
0
100
AcDbBlockEnd
  0
ENDSEC
  0
SECTION
  2
ENTITIES
  0
CIRCLE
  5
4E
100
AcDbEntity
  8
12mm from switch
  6
ByLayer
 62
    6
370
   -1
100
AcDbCircle
 10
244.7631809073812
 20
49.16944103643475
 40
1.5
  0
CIRCLE
  5
4F
100
AcDbEntity
  8
12mm from switch
  6
ByLayer
 62
    6
370
   -1
100
AcDbCircle
 10
311.4793086548053
 20
80.09369625452054
 40
1.5
  0
CIRCLE
  5
50
100
AcDbEntity
  8
12mm from switch
  6
ByLayer
 62
    6
370
   -1
100
AcDbCircle
 10
288.5522973307123
 20
165.6600107622377
 40
1.5
  0
CIRCLE
  5
51
100
AcDbEntity
  8
12mm from switch
  6
ByLayer
 62
    6
370
   -1
100
AcDbCircle
 10
108.2347492775422
 20
162.5149439961527
 40
1.5
  0
CIRCLE
  5
52
100
AcDbEntity
  8
12mm from switch
  6
ByLayer
 62
    6
370
   -1
100
AcDbCircle
 10
34.2095548977922
 20
165.6600107254168
 40
1.5
  0
CIRCLE
  5
53
100
AcDbEntity
  8
12mm from switch
  6
ByLayer
 62
    6
370
   -1
100
AcDbCircle
 10
11.28254369052911
 20
80.09369625452115
 40
1.5
  0
CIRCLE
  5
54
100
AcDbEntity
  8
12mm from switch
  6
ByLayer
 62
    6
370
   -1
100
AcDbCircle
 10
141.2444726426248
 20
4.906006407020115
 40
1.5
  0
CIRCLE
  5
55
100
AcDbEntity
  8
12mm from switch
  6
ByLayer
 62
    6
370
   -1
100
AcDbCircle
 10
181.5173797027094
 20
4.90600640701966
 40
1.5
  0
CIRCLE
  5
56
100
AcDbEntity
  8
12mm from switch
  6
ByLayer
 62
    6
370
   -1
100
AcDbCircle
 10
77.99867143795313
 20
49.16944103643526
 40
1.5
  0
CIRCLE
  5
57
100
AcDbEntity
  8
12mm from switch
  6
ByLayer
 62
    6
370
   -1
100
AcDbCircle
 10
214.5270752666438
 20
162.5150430281835
 40
1.5
  0
LWPOLYLINE
  5
58
100
AcDbEntity
  8
0
  6
ByLayer
 62
  256
370
   -1
100
AcDbPolyline
 90
   50
 70
    0
 43
0
 10
71.27351595756369
 20
154.057340944218
 10
71.27744987179811
 20
154.0562773049672
 42
0.4138820482674029
 10
72.37945579459492
 20
154.6916898626759
 10
73.30116866032888
 20
158.1125888884013
 42
-0.4140819487597678
 10
79.55290208601029
 20
161.7123512241606
 10
95.26670386780657
 20
157.4847482867025
 42
0.4142147579905015
 10
96.3696948107237
 20
158.1198961729838
 10
96.36972112226479
 20
158.1199937304744
 42
-0.4139180305473462
 10
99.96163386239732
 20
160.1859567835865
 10
114.2200223313221
 20
156.3467459794389
 42
-0.342958584898209
 10
117.9935500758624
 20
151.3518760969834
 42
0.3409194862179569
 10
120.1590321565014
 20
148.5478155718214
 10
158.6939025461762
 20
138.4586883271635
 42
0.1320050739223426
 10
163.831773078085
 20
138.4551254409031
 10
202.6028177336184
 20
148.5478149107302
 42
0.3409194862179609
 10
204.7683096330001
 20
151.3518754312275
 42
-0.3429585848982059
 10
208.5418275587978
 20
156.3467453183479
 10
222.800218527936
 20
160.185956795698
 42
-0.4139180305473425
 10
226.3921286851603
 20
158.1199930006117
 10
226.3921549502491
 20
158.1198956155216
 42
0.4142147579905026
 10
227.495148350114
 20
157.4847482524065
 10
243.2089502593241
 20
161.7123512241598
 42
-0.4140819487597667
 10
249.4606836850054
 20
158.1125888884007
 10
250.3823965507395
 20
154.6916898626753
 42
0.4138820482674633
 10
251.4844024735363
 20
154.0562773049667
 10
282.4820611477355
 20
162.3594675363574
 42
-0.4142135623730935
 10
288.7279769461878
 20
158.7527327472933
 10
308.1782911479828
 20
86.16367453476802
 42
-0.4142135623731046
 10
304.5720443874727
 20
79.91747694725044
 10
241.3924379602059
 20
62.98776351711721
 10
241.33909857691
 20
62.97428379741871
 42
0.4121259377807328
 10
239.9720455423612
 20
60.62586269754811
 10
241.4435137369
 20
55.24353002888833
 42
-0.415694869036231
 10
237.8439355688022
 20
48.97248633207677
 10
237.833977361033
 20
48.97035498865847
 42
0.2230744041507295
 10
180.4192658173948
 20
9.786114864230491
 42
-0.2654408662854867
 10
177.917436232243
 20
8.357264049228185
 10
144.8444161130913
 20
8.357264049228782
 42
-0.2654408662854858
 10
142.3425865279393
 20
9.786114864231024
 42
0.2230744041507297
 10
84.92787498430135
 20
48.97035498865915
 10
84.91791677653218
 20
48.97248633207741
 42
-0.4156948690362284
 10
81.31833860843417
 20
55.24353002888894
 10
82.77518887044258
 20
60.57282395037188
 10
82.78980680297303
 20
60.6258626975487
 42
0.4121259377807309
 10
81.42275376842434
 20
62.97428379741929
 10
18.1898079578616
 20
79.91747694725103
 42
-0.4142135623730978
 10
14.58356119735148
 20
86.16367453476857
 10
34.03387539914662
 20
158.7527327472943
 42
-0.41421356237309
 10
40.27979119759902
 20
162.359467536358
 10
71.27351595756369
 20
154.057340944218
  0
LWPOLYLINE
  5
59
100
AcDbEntity
  8
0
  6
ByLayer
 62
  256
370
   -1
100
AcDbPolyline
 90
  121
 70
    1
 43
0
 10
102.5745320591483
 20
164.5585067803092
 10
101.3679036825266
 20
164.8818240379729
 10
101.2352024833704
 20
164.9175551359059
 42
0.2470032548730156
 10
94.12048786068424
 20
163.3162438594199
 42
-0.2469723645258509
 10
93.21212625445705
 20
163.1117430263989
 10
80.82555010294678
 20
166.444197272479
 42
0.3758888868988925
 10
68.99697100234332
 20
160.6372268139256
 42
-0.3755991499662052
 10
67.81535971623215
 20
160.0563969752395
 10
67.3298842468422
 20
160.1864400919208
 42
-0.2355724516184152
 10
66.6613271984214
 20
160.7780728300898
 10
66.10029672085597
 20
162.167939692993
 42
0.2360686595899516
 10
65.42992043777515
 20
162.7600543559246
 42
0.4142135623731041
 10
64.20655915218191
 20
162.0505557010036
 10
63.9515572468492
 20
161.0913842136084
 10
42.70076892058982
 20
166.7837804727967
 10
42.95904363930951
 20
167.7576232622914
 42
0.4142163653510625
 10
42.24878256338304
 20
168.9805494023454
 42
0.2360674723354254
 10
41.37298122621016
 20
168.7989758486066
 10
40.19667108720337
 20
167.8707225251514
 42
-0.2367282464078011
 10
39.31845098013874
 20
167.6897936378621
 10
38.71719097331242
 20
167.8508516730329
 42
-0.1567512262098374
 10
37.68859309099407
 20
168.5141819274023
 42
0.8487047955113026
 10
29.9986937357317
 20
164.072985749605
 42
-0.1568237143068568
 10
30.0590503622804
 20
162.8499988359936
 10
9.092390774958027
 20
84.60189579728628
 42
-0.1567861554281849
 10
8.428849034581722
 20
83.57312534714751
 42
0.8487044075956061
 10
12.86898809708638
 20
75.88261632831454
 42
-0.1567882446457911
 10
14.09171581466108
 20
75.94287603858491
 10
14.63762018690107
 20
75.79660008913091
 42
-0.2360660387971462
 10
15.30682916122803
 20
75.20317983672258
 10
15.86559520106815
 20
73.81111325161842
 42
0.2360660387971593
 10
16.53483078239749
 20
73.21768586982122
 42
0.4142243194801531
 10
17.75954176504655
 20
73.92479940556981
 10
18.01839845547702
 20
74.89071514613215
 10
39.26871391210187
 20
69.19665913983906
 10
39.00864245985935
 20
68.22505080637079
 42
0.4142135623730985
 10
39.71606955830942
 20
67.00049092609603
 10
39.75365413805244
 20
66.99043070390498
 42
0.2333478292970706
 10
40.62173253330426
 20
67.16364735419721
 10
41.83958533081965
 20
68.0999712514426
 42
-0.2334173722364657
 10
42.7121960285947
 20
68.27397260052571
 10
76.30346945786098
 20
59.27313717201878
 42
-0.4127302261028208
 10
77.00569459895586
 20
58.04970069106162
 10
75.83074753445239
 20
53.69579003492984
 42
-0.1579172246579234
 10
75.1603660980545
 20
52.66143513687445
 42
0.8329001451663047
 10
79.40925181188052
 20
44.89623813829306
 42
-0.1351444292854777
 10
80.46967891037517
 20
44.9494905866905
 10
84.1476657510337
 20
44.13286870420074
 42
-0.2166553371082151
 10
137.145739949484
 20
8.906363678409937
 42
-0.2625993909147813
 10
137.2319002364644
 20
6.94298031095788
 42
0.956206679577293
 10
145.0588415118502
 20
2.518415543933704
 42
-0.2584110733083715
 10
146.7541165648387
 20
3.457264049229392
 10
176.0077357804963
 20
3.457264049228172
 42
-0.2584110733083107
 10
177.703010833485
 20
2.518415543933115
 42
0.9562066795772212
 10
185.5299521088698
 20
6.942980310957305
 42
-0.2625993909147781
 10
185.6161123958501
 20
8.906363678409424
 42
-0.2166553331585525
 10
238.6141865942957
 20
44.13286870419883
 10
242.2921734349563
 20
44.94949058669002
 42
-0.1351444292856297
 10
243.3526005334521
 20
44.89623813829244
 42
0.8312366226326877
 10
247.6151940446553
 20
52.65024856699743
 42
-0.1556128911179934
 10
246.9535513057549
 20
53.66985455717053
 10
246.1700933907949
 20
56.53559998650987
 10
245.7561577463784
 20
58.04970069106106
 42
-0.4127302261028449
 10
246.4583828874733
 20
59.2731371720182
 10
280.0410494199414
 20
68.27388381494058
 42
-0.2334173722364632
 10
280.9136717006313
 20
68.09994056385615
 10
282.1315868350263
 20
67.16369775219869
 42
0.2333478292970697
 10
282.9996767609585
 20
66.99053889814689
 10
283.0372606708179
 20
67.0006016226622
 42
0.4142135623731013
 10
283.744606237636
 20
68.22520860006465
 10
283.4844700971859
 20
69.19679961606275
 10
304.7344391516349
 20
74.89214757066065
 10
304.993355347041
 20
73.92624777885865
 42
0.4142243194801439
 10
306.2181364958251
 20
73.21921682408852
 42
0.236066038797156
 10
306.8873089110877
 20
73.81267830214735
 10
307.4459891912775
 20
75.20477930752347
 42
-0.2360660387971442
 10
308.1151616065401
 20
75.79824078558228
 10
308.6610935420874
 20
75.94456016827269
 42
-0.1574112559049042
 10
309.8884555792121
 20
75.88427984700252
 42
0.8487017536791365
 10
314.3366666055903
 20
83.57011762441918
 42
-0.1561618374791233
 10
313.6754714146611
 20
84.59487756306859
 10
292.7011185108764
 20
162.8409625768135
 42
-0.1574463588610854
 10
292.7614957263265
 20
164.0685809440006
 42
0.848701423429215
 10
285.0762696918314
 20
168.5178476809127
 42
-0.1561265516676052
 10
284.0516847447458
 20
167.8568653646012
 10
283.4423970575205
 20
167.6935704677898
 42
-0.2367282464078008
 10
282.5641769504558
 20
167.8744993550791
 10
281.387866811449
 20
168.8027526785343
 42
0.2360674723354257
 10
280.5120654742644
 20
168.9843262323174
 42
0.4142163653510615
 10
279.801804511203
 20
167.7613996666571
 10
280.0600791170693
 20
166.7875573027244
 10
258.8101568217476
 20
161.0918957389339
 10
258.5550277060324
 20
162.0510340062642
 42
0.4142135623731031
 10
257.3315725951199
 20
162.760370027871
 42
0.2360686595899572
 10
256.6612747553262
 20
162.1681665654271
 10
256.1004283982998
 20
160.7782253950304
 42
-0.2355724516184119
 10
255.4319497293138
 20
160.1865040983228
 10
254.9464814090673
 20
160.0563939698532
 42
-0.3755991499664972
 10
253.7648813429907
 20
160.6372268139249
 42
0.3758888868989009
 10
241.9363022423877
 20
166.4441972724785
 10
229.5497241447705
 20
163.1117425028233
 42
-0.2469723854108589
 10
228.6413624786122
 20
163.3162433869105
 42
0.2470031521496428
 10
221.5266521119055
 20
164.9175557415047
 10
221.3602338886919
 20
164.8727460045245
 10
220.1911764603622
 20
164.5577600115723
 42
-0.3028294809027837
 10
218.0881571675466
 20
165.2661692875678
 42
0.6666649630854719
 10
210.0661082499622
 20
163.1064593587598
 42
-0.3027205086853646
 10
208.6037724682977
 20
161.4381790032937
 10
207.4340296990658
 20
161.1229790930706
 10
207.2678282401421
 20
161.078227721999
 42
0.2810200637410194
 10
200.0916146481697
 20
153.5258756246116
 42
-0.2832761255909134
 10
199.365912893014
 20
152.7685004305849
 10
162.5635614062881
 20
143.1881624316225
 42
-0.1320050739223428
 10
159.9686772992635
 20
143.1899618691278
 10
123.3952599959667
 20
152.7656735239144
 42
-0.2829760819237694
 10
122.6708575631362
 20
153.5229822305058
 42
0.2810999493935438
 10
115.4940204187051
 20
161.078228714623
 10
115.355523837848
 20
161.1155202758558
 10
114.1609720171031
 20
161.4355109752827
 42
-0.303176881503654
 10
112.6958859304645
 20
163.1050793738017
 42
0.6666588047743158
 10
104.6745044211113
 20
165.267153392666
 42
-0.3023685427435538
  0
ENDSEC
  0
SECTION
  2
OBJECTS
  0
DICTIONARY
  5
C
330
0
100
AcDbDictionary
281
    1
  3
ACAD_GROUP
350
D
  0
DICTIONARY
  5
D
330
C
100
AcDbDictionary
281
    1
  0
ENDSEC
  0
EOF
